<?xml version="1.0" encoding="UTF-8" standalone="no"?>
<svg width="394px" height="87px" viewBox="0 0 394 87" version="1.1" xmlns="http://www.w3.org/2000/svg" xmlns:xlink="http://www.w3.org/1999/xlink">
    <!-- Generator: Sketch 3.6.1 (26313) - http://www.bohemiancoding.com/sketch -->
    <title>logo-full</title>
    <desc>Created with Sketch.</desc>
    <defs></defs>
    <g id="Iteration-3" stroke="none" stroke-width="1" fill="none" fill-rule="evenodd">
        <g id="logo-full" fill="#FFFFFF">
            <g id="Group">
                <path d="M4.93,22.508 C5.74600408,22.4399997 6.3806644,22.3153342 6.834,22.134 C7.2873356,21.9526658 7.63299881,21.6693353 7.871,21.284 C8.10900119,20.8986647 8.25633305,20.3943364 8.313,19.771 C8.36966695,19.1476635 8.398,18.3600048 8.398,17.408 L8.398,1.632 C7.19666066,1.632 6.19367069,1.67733288 5.389,1.768 C4.58432931,1.85866712 3.88733628,2.09099813 3.298,2.465 C2.70866372,2.83900187 2.19300221,3.41132948 1.751,4.182 C1.30899779,4.95267052 0.87266882,6.00665998 0.442,7.344 L0,7.208 L0.476,0.544 C1.42800476,0.58933356 2.36866202,0.62333322 3.298,0.646 C4.22733798,0.66866678 5.16799524,0.68 6.12,0.68 L14.11,0.68 C15.0166712,0.68 15.9119956,0.66866678 16.796,0.646 C17.6800044,0.62333322 18.5753288,0.58933356 19.482,0.544 L19.958,7.208 L19.516,7.344 C19.0853312,6.00665998 18.6490022,4.95267052 18.207,4.182 C17.7649978,3.41132948 17.2493363,2.83900187 16.66,2.465 C16.0706637,2.09099813 15.3623375,1.85866712 14.535,1.768 C13.7076625,1.67733288 12.6820061,1.632 11.458,1.632 L11.458,17.408 C11.458,18.3600048 11.4863331,19.1476635 11.543,19.771 C11.599667,20.3943364 11.7469988,20.8986647 11.985,21.284 C12.2230012,21.6693353 12.5799976,21.9526658 13.056,22.134 C13.5320024,22.3153342 14.1893291,22.4399997 15.028,22.508 L15.028,22.916 C14.1666624,22.8706664 13.3053376,22.8366668 12.444,22.814 C11.5826624,22.7913332 10.7213376,22.78 9.86,22.78 C9.02132914,22.78 8.19400408,22.7913332 7.378,22.814 C6.56199592,22.8366668 5.74600408,22.8706664 4.93,22.916 L4.93,22.508 Z M53.446,6.052 C53.446,5.09999524 53.4176669,4.31233645 53.361,3.689 C53.304333,3.06566355 53.1570012,2.56133526 52.919,2.176 C52.6809988,1.79066474 52.3240024,1.50733424 51.848,1.326 C51.3719976,1.14466576 50.7260041,1.02000034 49.91,0.952 L49.91,0.544 C50.8620048,0.58933356 51.7856622,0.62333322 52.681,0.646 C53.5763378,0.66866678 54.4999952,0.68 55.452,0.68 C56.2000037,0.68 56.9479963,0.66866678 57.696,0.646 C58.4440037,0.62333322 59.180663,0.58933356 59.906,0.544 L59.906,0.952 C59.1126627,1.02000034 58.4893356,1.14466576 58.036,1.326 C57.5826644,1.50733424 57.2426678,1.79066474 57.016,2.176 C56.7893322,2.56133526 56.6476669,3.06566355 56.591,3.689 C56.534333,4.31233645 56.506,5.09999524 56.506,6.052 L56.506,17.408 C56.506,18.3600048 56.534333,19.1476635 56.591,19.771 C56.6476669,20.3943364 56.7949988,20.8986647 57.033,21.284 C57.2710012,21.6693353 57.6279976,21.9526658 58.104,22.134 C58.5800024,22.3153342 59.2373291,22.4399997 60.076,22.508 L60.076,22.916 C59.2146624,22.8706664 58.3533376,22.8366668 57.492,22.814 C56.6306624,22.7913332 55.7693376,22.78 54.908,22.78 C54.0693291,22.78 53.2420041,22.7913332 52.426,22.814 C51.6099959,22.8366668 50.7940041,22.8706664 49.978,22.916 L49.978,22.508 C50.7940041,22.4399997 51.4286644,22.3153342 51.882,22.134 C52.3353356,21.9526658 52.6809988,21.6693353 52.919,21.284 C53.1570012,20.8986647 53.304333,20.3943364 53.361,19.771 C53.4176669,19.1476635 53.446,18.3600048 53.446,17.408 L53.446,11.288 L40.832,11.288 L40.832,17.408 C40.832,18.3600048 40.860333,19.1476635 40.917,19.771 C40.9736669,20.3943364 41.1209988,20.8986647 41.359,21.284 C41.5970012,21.6693353 41.9539976,21.9526658 42.43,22.134 C42.9060024,22.3153342 43.5633291,22.4399997 44.402,22.508 L44.402,22.916 C43.5406624,22.8706664 42.6793376,22.8366668 41.818,22.814 C40.9566624,22.7913332 40.0953376,22.78 39.234,22.78 C38.3953291,22.78 37.5680041,22.7913332 36.752,22.814 C35.9359959,22.8366668 35.1200041,22.8706664 34.304,22.916 L34.304,22.508 C35.1200041,22.4399997 35.7546644,22.3153342 36.208,22.134 C36.6613356,21.9526658 37.0069988,21.6693353 37.245,21.284 C37.4830012,20.8986647 37.630333,20.3943364 37.687,19.771 C37.7436669,19.1476635 37.772,18.3600048 37.772,17.408 L37.772,6.052 C37.772,5.09999524 37.7436669,4.31233645 37.687,3.689 C37.630333,3.06566355 37.4830012,2.56133526 37.245,2.176 C37.0069988,1.79066474 36.6500024,1.50733424 36.174,1.326 C35.6979976,1.14466576 35.0520041,1.02000034 34.236,0.952 L34.236,0.544 C35.1880048,0.58933356 36.1116622,0.62333322 37.007,0.646 C37.9023378,0.66866678 38.8259952,0.68 39.778,0.68 C40.5260037,0.68 41.2739963,0.66866678 42.022,0.646 C42.7700037,0.62333322 43.506663,0.58933356 44.232,0.544 L44.232,0.952 C43.4386627,1.02000034 42.8153356,1.14466576 42.362,1.326 C41.9086644,1.50733424 41.5686678,1.79066474 41.342,2.176 C41.1153322,2.56133526 40.9736669,3.06566355 40.917,3.689 C40.860333,4.31233645 40.832,5.09999524 40.832,6.052 L40.832,10.2 L53.446,10.2 L53.446,6.052 Z M81.12,21.454 C81.324001,21.4993336 81.5733319,21.5446664 81.868,21.59 C82.1626681,21.6353336 82.4799983,21.6806664 82.82,21.726 C83.1600017,21.7713336 83.5113315,21.8109998 83.874,21.845 C84.2366685,21.8790002 84.5766651,21.896 84.894,21.896 C86.2540068,21.896 87.4723279,21.7826678 88.549,21.556 C89.625672,21.3293322 90.6116622,20.9666692 91.507,20.468 C92.4023378,19.9693308 93.2466627,19.3346705 94.04,18.564 C94.8333373,17.7933295 95.6379959,16.8640054 96.454,15.776 L96.828,16.082 L93.734,22.916 C93.3486647,22.8706664 92.952002,22.8366668 92.544,22.814 C92.135998,22.7913332 91.7393353,22.78 91.354,22.78 L78.57,22.78 C77.9126634,22.78 77.2553366,22.7913332 76.598,22.814 C75.9406634,22.8366668 75.2833366,22.8706664 74.626,22.916 L74.626,22.508 C75.4420041,22.4399997 76.0766644,22.3153342 76.53,22.134 C76.9833356,21.9526658 77.3233322,21.6693353 77.55,21.284 C77.7766678,20.8986647 77.9183331,20.3943364 77.975,19.771 C78.031667,19.1476635 78.06,18.3600048 78.06,17.408 L78.06,6.052 C78.06,5.09999524 78.031667,4.31233645 77.975,3.689 C77.9183331,3.06566355 77.7766678,2.56133526 77.55,2.176 C77.3233322,1.79066474 76.9720024,1.50733424 76.496,1.326 C76.0199976,1.14466576 75.3740041,1.02000034 74.558,0.952 L74.558,0.544 C75.3286705,0.56666678 76.0596632,0.58933322 76.751,0.612 C77.4423368,0.63466678 78.1563297,0.65166661 78.893,0.663 C79.6296703,0.67433339 80.4116625,0.68 81.239,0.68 L84.044,0.68 C85.6306746,0.68 87.2173254,0.66866678 88.804,0.646 C90.3906746,0.62333322 91.9999918,0.58933356 93.632,0.544 C93.6093332,0.79333458 93.5923334,1.04266542 93.581,1.292 C93.5696666,1.54133458 93.564,1.7793322 93.564,2.006 L93.564,3.366 C93.564,3.86466916 93.5866664,4.36899745 93.632,4.879 C93.6773336,5.38900255 93.7226664,5.94999694 93.768,6.562 L93.326,6.698 C93.0313319,5.60999456 92.6403358,4.72033679 92.153,4.029 C91.6656642,3.33766321 91.0990032,2.79933526 90.453,2.414 C89.8069968,2.02866474 89.0986705,1.76800068 88.328,1.632 C87.5573295,1.49599932 86.7413376,1.428 85.88,1.428 C84.2933254,1.428 82.7066746,1.49599932 81.12,1.632 L81.12,10.132 C81.5733356,10.132 82.0096646,10.1206668 82.429,10.098 C82.8483354,10.0753332 83.2846644,10.064 83.738,10.064 C85.3020078,10.064 86.5429954,9.75233645 87.461,9.129 C88.3790046,8.50566355 88.939999,7.36667494 89.144,5.712 L89.552,5.712 C89.552,6.52800408 89.5406668,7.34399592 89.518,8.16 C89.4953332,8.97600408 89.484,9.7806627 89.484,10.574 C89.484,11.3900041 89.4953332,12.2059959 89.518,13.022 C89.5406668,13.8380041 89.552,14.6539959 89.552,15.47 L89.144,15.47 C88.939999,14.5179952 88.6906681,13.7416697 88.396,13.141 C88.1013319,12.5403303 87.7330022,12.0813349 87.291,11.764 C86.8489978,11.4466651 86.2993366,11.2313339 85.642,11.118 C84.9846634,11.0046661 84.2026712,10.948 83.296,10.948 L81.12,10.948 L81.12,21.454 Z M140.548,22.916 C139.686662,22.8706664 138.831004,22.8366668 137.981,22.814 C137.130996,22.7913332 136.275338,22.78 135.414,22.78 C134.575329,22.78 133.742337,22.7913332 132.915,22.814 C132.087663,22.8366668 131.232004,22.8706664 130.348,22.916 L130.348,22.508 C131.186671,22.4399997 131.849664,22.3153342 132.337,22.134 C132.824336,21.9526658 133.186999,21.6693353 133.425,21.284 C133.663001,20.8986647 133.810333,20.3943364 133.867,19.771 C133.923667,19.1476635 133.952,18.3600048 133.952,17.408 L133.952,6.052 C133.952,5.09999524 133.923667,4.31233645 133.867,3.689 C133.810333,3.06566355 133.663001,2.56133526 133.425,2.176 C133.186999,1.79066474 132.830002,1.50733424 132.354,1.326 C131.877998,1.14466576 131.232004,1.02000034 130.416,0.952 L130.416,0.544 C131.164004,0.58933356 131.911996,0.62333322 132.66,0.646 C133.408004,0.66866678 134.155996,0.68 134.904,0.68 C135.992005,0.68 137.062995,0.6233339 138.117,0.51 C139.171005,0.3966661 140.241995,0.34 141.33,0.34 C142.168671,0.34 143.046995,0.49299847 143.965,0.799 C144.883005,1.10500153 145.727329,1.54699711 146.498,2.125 C147.268671,2.70300289 147.897664,3.40566253 148.385,4.233 C148.872336,5.06033747 149.116,5.99532812 149.116,7.038 C149.116,8.12600544 148.866669,9.04399626 148.368,9.792 C147.869331,10.5400037 147.240337,11.146331 146.481,11.611 C145.721663,12.075669 144.877338,12.409999 143.948,12.614 C143.018662,12.818001 142.112004,12.92 141.228,12.92 C140.547997,12.92 139.845337,12.8803337 139.12,12.801 C138.394663,12.7216663 137.692003,12.5573346 137.012,12.308 L137.012,17.408 C137.012,18.3600048 137.040333,19.1476635 137.097,19.771 C137.153667,20.3943364 137.300999,20.8986647 137.539,21.284 C137.777001,21.6693353 138.133998,21.9526658 138.61,22.134 C139.086002,22.3153342 139.731996,22.4399997 140.548,22.508 L140.548,22.916 Z M137.012,11.084 C137.556003,11.3786681 138.116997,11.5769995 138.695,11.679 C139.273003,11.7810005 139.856664,11.832 140.446,11.832 C141.14867,11.832 141.822997,11.7243344 142.469,11.509 C143.115003,11.2936656 143.675998,10.9876686 144.152,10.591 C144.628002,10.1943313 145.007665,9.70133628 145.291,9.112 C145.574335,8.52266372 145.716,7.85400374 145.716,7.106 C145.716,6.22199558 145.574335,5.41733696 145.291,4.692 C145.007665,3.96666304 144.616669,3.35466916 144.118,2.856 C143.619331,2.35733084 143.024337,1.97200136 142.333,1.7 C141.641663,1.42799864 140.888004,1.292 140.072,1.292 C139.663998,1.292 139.182336,1.32033305 138.627,1.377 C138.071664,1.43366695 137.533336,1.5753322 137.012,1.802 L137.012,11.084 Z M164.108,22.508 C164.924004,22.4399997 165.558664,22.3153342 166.012,22.134 C166.465336,21.9526658 166.810999,21.6693353 167.049,21.284 C167.287001,20.8986647 167.434333,20.3943364 167.491,19.771 C167.547667,19.1476635 167.576,18.3600048 167.576,17.408 L167.576,6.052 C167.576,5.09999524 167.547667,4.31233645 167.491,3.689 C167.434333,3.06566355 167.287001,2.56133526 167.049,2.176 C166.810999,1.79066474 166.454002,1.50733424 165.978,1.326 C165.501998,1.14466576 164.856004,1.02000034 164.04,0.952 L164.04,0.544 C164.992005,0.58933356 165.915662,0.62333322 166.811,0.646 C167.706338,0.66866678 168.629995,0.68 169.582,0.68 C170.330004,0.68 171.077996,0.66866678 171.826,0.646 C172.574004,0.62333322 173.310663,0.58933356 174.036,0.544 L174.036,0.952 C173.242663,1.02000034 172.619336,1.14466576 172.166,1.326 C171.712664,1.50733424 171.372668,1.79066474 171.146,2.176 C170.919332,2.56133526 170.777667,3.06566355 170.721,3.689 C170.664333,4.31233645 170.636,5.09999524 170.636,6.052 L170.636,17.408 C170.636,18.3600048 170.664333,19.1476635 170.721,19.771 C170.777667,20.3943364 170.924999,20.8986647 171.163,21.284 C171.401001,21.6693353 171.757998,21.9526658 172.234,22.134 C172.710002,22.3153342 173.367329,22.4399997 174.206,22.508 L174.206,22.916 C173.344662,22.8706664 172.483338,22.8366668 171.622,22.814 C170.760662,22.7913332 169.899338,22.78 169.038,22.78 C168.199329,22.78 167.372004,22.7913332 166.556,22.814 C165.739996,22.8366668 164.924004,22.8706664 164.108,22.916 L164.108,22.508 Z M189.334,11.73 C189.334,9.89399082 189.66833,8.25067392 190.337,6.8 C191.00567,5.34932608 191.906661,4.11967171 193.04,3.111 C194.173339,2.10232829 195.504992,1.33166933 197.035,0.799 C198.565008,0.26633067 200.191325,0 201.914,0 C203.636675,0 205.262992,0.26633067 206.793,0.799 C208.323008,1.33166933 209.654661,2.10232829 210.788,3.111 C211.921339,4.11967171 212.82233,5.34932608 213.491,6.8 C214.15967,8.25067392 214.494,9.89399082 214.494,11.73 C214.494,13.5660092 214.15967,15.2093261 213.491,16.66 C212.82233,18.1106739 211.921339,19.3403283 210.788,20.349 C209.654661,21.3576717 208.323008,22.1283307 206.793,22.661 C205.262992,23.1936693 203.636675,23.46 201.914,23.46 C200.191325,23.46 198.565008,23.1936693 197.035,22.661 C195.504992,22.1283307 194.173339,21.3576717 193.04,20.349 C191.906661,19.3403283 191.00567,18.1106739 190.337,16.66 C189.66833,15.2093261 189.334,13.5660092 189.334,11.73 L189.334,11.73 Z M192.938,11.73 C192.938,13.1126736 193.141998,14.4386603 193.55,15.708 C193.958002,16.9773397 194.547329,18.0936618 195.318,19.057 C196.088671,20.0203381 197.029328,20.7909971 198.14,21.369 C199.250672,21.9470029 200.50866,22.236 201.914,22.236 C203.31934,22.236 204.577328,21.9470029 205.688,21.369 C206.798672,20.7909971 207.739329,20.0203381 208.51,19.057 C209.280671,18.0936618 209.869998,16.9773397 210.278,15.708 C210.686002,14.4386603 210.89,13.1126736 210.89,11.73 C210.89,10.3473264 210.686002,9.02133968 210.278,7.752 C209.869998,6.48266032 209.280671,5.36633815 208.51,4.403 C207.739329,3.43966185 206.798672,2.66900289 205.688,2.091 C204.577328,1.51299711 203.31934,1.224 201.914,1.224 C200.50866,1.224 199.250672,1.51299711 198.14,2.091 C197.029328,2.66900289 196.088671,3.43966185 195.318,4.403 C194.547329,5.36633815 193.958002,6.48266032 193.55,7.752 C193.141998,9.02133968 192.938,10.3473264 192.938,11.73 L192.938,11.73 Z M228.602,0.544 C229.395337,0.58933356 230.148996,0.62333322 230.863,0.646 C231.577004,0.66866678 232.409995,0.68 233.362,0.68 C233.860669,0.68 234.347998,0.66866678 234.824,0.646 C235.300002,0.62333322 235.787331,0.58933356 236.286,0.544 C236.580668,0.95200204 237.067997,1.56966253 237.748,2.397 C238.428003,3.22433747 239.204329,4.17066134 240.077,5.236 C240.949671,6.30133866 241.884662,7.43466066 242.882,8.636 C243.879338,9.83733934 244.842662,11.0103276 245.772,12.155 C246.701338,13.2996724 247.556996,14.3649951 248.339,15.351 C249.121004,16.3370049 249.738664,17.1473302 250.192,17.782 L250.26,17.782 C250.26,17.1019966 250.265667,16.42767 250.277,15.759 C250.288333,15.09033 250.294,14.4160034 250.294,13.736 L250.294,9.792 C250.294,8.34132608 250.243001,7.07767205 250.141,6.001 C250.038999,4.92432795 249.835002,4.02333696 249.529,3.298 C249.222998,2.57266304 248.792336,2.01733526 248.237,1.632 C247.681664,1.24666474 246.950671,1.02000034 246.044,0.952 L246.044,0.544 C246.837337,0.58933356 247.636329,0.62333322 248.441,0.646 C249.245671,0.66866678 250.044663,0.68 250.838,0.68 C251.563337,0.68 252.299996,0.66866678 253.048,0.646 C253.796004,0.62333322 254.532663,0.58933356 255.258,0.544 L255.258,0.952 C253.829993,1.13333424 252.849669,1.54699677 252.317,2.193 C251.784331,2.83900323 251.518,3.83065998 251.518,5.168 L251.518,23.188 L250.26,23.188 C249.013327,21.2386569 247.693007,19.3460092 246.299,17.51 C244.904993,15.6739908 243.52234,13.9286749 242.151,12.274 C240.77966,10.6193251 239.453673,9.08367375 238.173,7.667 C236.892327,6.25032625 235.742005,4.98667222 234.722,3.876 C234.699333,4.46533628 234.682333,5.0433305 234.671,5.61 C234.659667,6.1766695 234.654,6.75466372 234.654,7.344 L234.654,13.294 C234.654,15.3113434 234.693666,16.9036608 234.773,18.071 C234.852334,19.2383392 235.044998,20.1336635 235.351,20.757 C235.657002,21.3803364 236.11033,21.7996656 236.711,22.015 C237.31167,22.2303344 238.144661,22.3946661 239.21,22.508 L239.21,22.916 C238.053994,22.8706664 236.932005,22.8366668 235.844,22.814 C234.755995,22.7913332 233.634006,22.78 232.478,22.78 C231.820663,22.78 231.17467,22.7913332 230.54,22.814 C229.90533,22.8366668 229.259337,22.8706664 228.602,22.916 L228.602,22.508 C229.372671,22.3946661 230.046997,22.2870005 230.625,22.185 C231.203003,22.0829995 231.678998,21.9130012 232.053,21.675 C232.427002,21.4369988 232.710332,21.0970022 232.903,20.655 C233.095668,20.2129978 233.203333,19.5953373 233.226,18.802 L233.634,3.196 C232.908663,2.60666372 232.115338,2.1420017 231.254,1.802 C230.392662,1.4619983 229.508671,1.1786678 228.602,0.952 L228.602,0.544 Z M275.588,21.454 C275.792001,21.4993336 276.041332,21.5446664 276.336,21.59 C276.630668,21.6353336 276.947998,21.6806664 277.288,21.726 C277.628002,21.7713336 277.979332,21.8109998 278.342,21.845 C278.704668,21.8790002 279.044665,21.896 279.362,21.896 C280.722007,21.896 281.940328,21.7826678 283.017,21.556 C284.093672,21.3293322 285.079662,20.9666692 285.975,20.468 C286.870338,19.9693308 287.714663,19.3346705 288.508,18.564 C289.301337,17.7933295 290.105996,16.8640054 290.922,15.776 L291.296,16.082 L288.202,22.916 C287.816665,22.8706664 287.420002,22.8366668 287.012,22.814 C286.603998,22.7913332 286.207335,22.78 285.822,22.78 L273.038,22.78 C272.380663,22.78 271.723337,22.7913332 271.066,22.814 C270.408663,22.8366668 269.751337,22.8706664 269.094,22.916 L269.094,22.508 C269.910004,22.4399997 270.544664,22.3153342 270.998,22.134 C271.451336,21.9526658 271.791332,21.6693353 272.018,21.284 C272.244668,20.8986647 272.386333,20.3943364 272.443,19.771 C272.499667,19.1476635 272.528,18.3600048 272.528,17.408 L272.528,6.052 C272.528,5.09999524 272.499667,4.31233645 272.443,3.689 C272.386333,3.06566355 272.244668,2.56133526 272.018,2.176 C271.791332,1.79066474 271.440002,1.50733424 270.964,1.326 C270.487998,1.14466576 269.842004,1.02000034 269.026,0.952 L269.026,0.544 C269.796671,0.56666678 270.527663,0.58933322 271.219,0.612 C271.910337,0.63466678 272.62433,0.65166661 273.361,0.663 C274.09767,0.67433339 274.879663,0.68 275.707,0.68 L278.512,0.68 C280.098675,0.68 281.685325,0.66866678 283.272,0.646 C284.858675,0.62333322 286.467992,0.58933356 288.1,0.544 C288.077333,0.79333458 288.060333,1.04266542 288.049,1.292 C288.037667,1.54133458 288.032,1.7793322 288.032,2.006 L288.032,3.366 C288.032,3.86466916 288.054666,4.36899745 288.1,4.879 C288.145334,5.38900255 288.190666,5.94999694 288.236,6.562 L287.794,6.698 C287.499332,5.60999456 287.108336,4.72033679 286.621,4.029 C286.133664,3.33766321 285.567003,2.79933526 284.921,2.414 C284.274997,2.02866474 283.566671,1.76800068 282.796,1.632 C282.025329,1.49599932 281.209338,1.428 280.348,1.428 C278.761325,1.428 277.174675,1.49599932 275.588,1.632 L275.588,10.132 C276.041336,10.132 276.477665,10.1206668 276.897,10.098 C277.316335,10.0753332 277.752664,10.064 278.206,10.064 C279.770008,10.064 281.010995,9.75233645 281.929,9.129 C282.847005,8.50566355 283.407999,7.36667494 283.612,5.712 L284.02,5.712 C284.02,6.52800408 284.008667,7.34399592 283.986,8.16 C283.963333,8.97600408 283.952,9.7806627 283.952,10.574 C283.952,11.3900041 283.963333,12.2059959 283.986,13.022 C284.008667,13.8380041 284.02,14.6539959 284.02,15.47 L283.612,15.47 C283.407999,14.5179952 283.158668,13.7416697 282.864,13.141 C282.569332,12.5403303 282.201002,12.0813349 281.759,11.764 C281.316998,11.4466651 280.767337,11.2313339 280.11,11.118 C279.452663,11.0046661 278.670671,10.948 277.764,10.948 L275.588,10.948 L275.588,21.454 Z M310.878,21.454 C311.082001,21.4993336 311.331332,21.5446664 311.626,21.59 C311.920668,21.6353336 312.237998,21.6806664 312.578,21.726 C312.918002,21.7713336 313.269332,21.8109998 313.632,21.845 C313.994668,21.8790002 314.334665,21.896 314.652,21.896 C316.012007,21.896 317.230328,21.7826678 318.307,21.556 C319.383672,21.3293322 320.369662,20.9666692 321.265,20.468 C322.160338,19.9693308 323.004663,19.3346705 323.798,18.564 C324.591337,17.7933295 325.395996,16.8640054 326.212,15.776 L326.586,16.082 L323.492,22.916 C323.106665,22.8706664 322.710002,22.8366668 322.302,22.814 C321.893998,22.7913332 321.497335,22.78 321.112,22.78 L308.328,22.78 C307.670663,22.78 307.013337,22.7913332 306.356,22.814 C305.698663,22.8366668 305.041337,22.8706664 304.384,22.916 L304.384,22.508 C305.200004,22.4399997 305.834664,22.3153342 306.288,22.134 C306.741336,21.9526658 307.081332,21.6693353 307.308,21.284 C307.534668,20.8986647 307.676333,20.3943364 307.733,19.771 C307.789667,19.1476635 307.818,18.3600048 307.818,17.408 L307.818,6.052 C307.818,5.09999524 307.789667,4.31233645 307.733,3.689 C307.676333,3.06566355 307.534668,2.56133526 307.308,2.176 C307.081332,1.79066474 306.730002,1.50733424 306.254,1.326 C305.777998,1.14466576 305.132004,1.02000034 304.316,0.952 L304.316,0.544 C305.086671,0.56666678 305.817663,0.58933322 306.509,0.612 C307.200337,0.63466678 307.91433,0.65166661 308.651,0.663 C309.38767,0.67433339 310.169663,0.68 310.997,0.68 L313.802,0.68 C315.388675,0.68 316.975325,0.66866678 318.562,0.646 C320.148675,0.62333322 321.757992,0.58933356 323.39,0.544 C323.367333,0.79333458 323.350333,1.04266542 323.339,1.292 C323.327667,1.54133458 323.322,1.7793322 323.322,2.006 L323.322,3.366 C323.322,3.86466916 323.344666,4.36899745 323.39,4.879 C323.435334,5.38900255 323.480666,5.94999694 323.526,6.562 L323.084,6.698 C322.789332,5.60999456 322.398336,4.72033679 321.911,4.029 C321.423664,3.33766321 320.857003,2.79933526 320.211,2.414 C319.564997,2.02866474 318.856671,1.76800068 318.086,1.632 C317.315329,1.49599932 316.499338,1.428 315.638,1.428 C314.051325,1.428 312.464675,1.49599932 310.878,1.632 L310.878,10.132 C311.331336,10.132 311.767665,10.1206668 312.187,10.098 C312.606335,10.0753332 313.042664,10.064 313.496,10.064 C315.060008,10.064 316.300995,9.75233645 317.219,9.129 C318.137005,8.50566355 318.697999,7.36667494 318.902,5.712 L319.31,5.712 C319.31,6.52800408 319.298667,7.34399592 319.276,8.16 C319.253333,8.97600408 319.242,9.7806627 319.242,10.574 C319.242,11.3900041 319.253333,12.2059959 319.276,13.022 C319.298667,13.8380041 319.31,14.6539959 319.31,15.47 L318.902,15.47 C318.697999,14.5179952 318.448668,13.7416697 318.154,13.141 C317.859332,12.5403303 317.491002,12.0813349 317.049,11.764 C316.606998,11.4466651 316.057337,11.2313339 315.4,11.118 C314.742663,11.0046661 313.960671,10.948 313.054,10.948 L310.878,10.948 L310.878,21.454 Z M363.44,22.78 L357.32,22.78 C355.891993,21.2159922 354.571673,19.6123415 353.359,17.969 C352.146327,16.3256584 351.064005,14.5860092 350.112,12.75 C349.885332,12.75 349.596335,12.7273336 349.245,12.682 C348.893665,12.6366664 348.531002,12.5856669 348.157,12.529 C347.782998,12.472333 347.420335,12.4043337 347.069,12.325 C346.717665,12.2456663 346.428668,12.1720003 346.202,12.104 L346.202,17.408 C346.202,18.3600048 346.230333,19.1476635 346.287,19.771 C346.343667,20.3943364 346.490999,20.8986647 346.729,21.284 C346.967001,21.6693353 347.323998,21.9526658 347.8,22.134 C348.276002,22.3153342 348.933329,22.4399997 349.772,22.508 L349.772,22.916 C348.910662,22.8706664 348.049338,22.8366668 347.188,22.814 C346.326662,22.7913332 345.465338,22.78 344.604,22.78 C343.765329,22.78 342.938004,22.7913332 342.122,22.814 C341.305996,22.8366668 340.490004,22.8706664 339.674,22.916 L339.674,22.508 C340.490004,22.4399997 341.124664,22.3153342 341.578,22.134 C342.031336,21.9526658 342.376999,21.6693353 342.615,21.284 C342.853001,20.8986647 343.000333,20.3943364 343.057,19.771 C343.113667,19.1476635 343.142,18.3600048 343.142,17.408 L343.142,6.052 C343.142,5.09999524 343.113667,4.31233645 343.057,3.689 C343.000333,3.06566355 342.853001,2.56133526 342.615,2.176 C342.376999,1.79066474 342.031336,1.50733424 341.578,1.326 C341.124664,1.14466576 340.490004,1.02000034 339.674,0.952 L339.674,0.544 C340.399337,0.58933356 341.124663,0.62333322 341.85,0.646 C342.575337,0.66866678 343.300663,0.68 344.026,0.68 C344.343335,0.68 344.739998,0.66300017 345.216,0.629 C345.692002,0.59499983 346.196331,0.55533356 346.729,0.51 C347.261669,0.46466644 347.799997,0.42500017 348.344,0.391 C348.888003,0.35699983 349.375331,0.34 349.806,0.34 C350.780672,0.34 351.777995,0.46466542 352.798,0.714 C353.818005,0.96333458 354.735996,1.35999728 355.552,1.904 C356.368004,2.44800272 357.036664,3.13932914 357.558,3.978 C358.079336,4.81667086 358.34,5.81399422 358.34,6.97 C358.34,7.7633373 358.198335,8.46599694 357.915,9.078 C357.631665,9.69000306 357.252002,10.2226644 356.776,10.676 C356.299998,11.1293356 355.739003,11.5033319 355.093,11.798 C354.446997,12.0926681 353.77267,12.3079993 353.07,12.444 C353.387335,12.9880027 353.761331,13.5999966 354.192,14.28 C354.622669,14.9600034 355.104331,15.6513298 355.637,16.354 C356.169669,17.0566702 356.73633,17.7536632 357.337,18.445 C357.93767,19.1363368 358.57233,19.7596639 359.241,20.315 C359.90967,20.8703361 360.59533,21.3349981 361.298,21.709 C362.00067,22.0830019 362.714663,22.3039997 363.44,22.372 L363.44,22.78 Z M346.202,10.948 C347.222005,11.3333353 348.275995,11.526 349.364,11.526 C351.132009,11.526 352.503328,11.1180041 353.478,10.302 C354.452672,9.48599592 354.94,8.16000918 354.94,6.324 C354.94,5.57599626 354.798335,4.90166967 354.515,4.301 C354.231665,3.70033033 353.840669,3.17900221 353.342,2.737 C352.843331,2.29499779 352.271003,1.95500119 351.625,1.717 C350.978997,1.47899881 350.30467,1.36 349.602,1.36 C349.03533,1.36 348.480003,1.38266644 347.936,1.428 C347.391997,1.47333356 346.859336,1.57533254 346.338,1.734 C346.292666,2.82200544 346.258667,3.92132778 346.236,5.032 C346.213333,6.14267222 346.202,7.34399354 346.202,8.636 L346.202,10.948 Z M391.59,7.004 C391.295332,6.27866304 390.915669,5.55900357 390.451,4.845 C389.986331,4.13099643 389.448003,3.49633611 388.836,2.941 C388.223997,2.38566389 387.544004,1.9380017 386.796,1.598 C386.047996,1.2579983 385.232004,1.088 384.348,1.088 C383.055994,1.088 381.996337,1.32599762 381.169,1.802 C380.341663,2.27800238 379.928,3.12799388 379.928,4.352 C379.928,5.07733696 380.114998,5.70633067 380.489,6.239 C380.863002,6.77166933 381.361664,7.24199796 381.985,7.65 C382.608336,8.05800204 383.316663,8.4319983 384.11,8.772 C384.903337,9.1120017 385.713663,9.45766491 386.541,9.809 C387.368337,10.1603351 388.178663,10.539998 388.972,10.948 C389.765337,11.356002 390.473664,11.8433305 391.097,12.41 C391.720336,12.9766695 392.218998,13.6339963 392.593,14.382 C392.967002,15.1300037 393.154,16.0253281 393.154,17.068 C393.154,18.1786722 392.950002,19.1363293 392.542,19.941 C392.133998,20.7456707 391.584337,21.4086641 390.893,21.93 C390.201663,22.4513359 389.397005,22.8366654 388.479,23.086 C387.560995,23.3353346 386.580672,23.46 385.538,23.46 C384.971331,23.46 384.382003,23.4090005 383.77,23.307 C383.157997,23.2049995 382.56867,23.0916673 382.002,22.967 C381.435331,22.8423327 380.919669,22.7290005 380.455,22.627 C379.990331,22.5249995 379.622001,22.474 379.35,22.474 C379.100665,22.474 378.862668,22.5136663 378.636,22.593 C378.409332,22.6723337 378.171335,22.7573329 377.922,22.848 C377.717999,21.5559935 377.480001,20.2923395 377.208,19.057 C376.935999,17.8216605 376.652668,16.5580065 376.358,15.266 L376.8,15.028 C377.208002,15.8213373 377.700997,16.6486624 378.279,17.51 C378.857003,18.3713376 379.508663,19.1589964 380.234,19.873 C380.959337,20.5870036 381.758329,21.1819976 382.631,21.658 C383.503671,22.1340024 384.449995,22.372 385.47,22.372 C386.127337,22.372 386.761997,22.2983341 387.374,22.151 C387.986003,22.0036659 388.524331,21.7713349 388.989,21.454 C389.453669,21.1366651 389.821999,20.7230026 390.094,20.213 C390.366001,19.7029974 390.502,19.0740037 390.502,18.326 C390.502,17.2606613 390.173337,16.3710036 389.516,15.657 C388.858663,14.9429964 388.042672,14.3196693 387.068,13.787 C386.093328,13.2543307 385.033672,12.7613356 383.889,12.308 C382.744328,11.8546644 381.684672,11.3446695 380.71,10.778 C379.735328,10.2113305 378.919337,9.54267052 378.262,8.772 C377.604663,8.00132948 377.276,7.02667256 377.276,5.848 C377.276,4.96399558 377.445998,4.15933696 377.786,3.434 C378.126002,2.70866304 378.584997,2.09100255 379.163,1.581 C379.741003,1.07099745 380.409663,0.68000136 381.169,0.408 C381.928337,0.13599864 382.738662,0 383.6,0 C384.438671,0 385.19233,0.0566661 385.861,0.17 C386.52967,0.2833339 387.18133,0.40799932 387.816,0.544 C388.473337,0.68000068 389.11933,0.81033271 389.754,0.935 C390.38867,1.05966729 391.068663,1.122 391.794,1.122 C391.794,2.1420051 391.811,3.13366185 391.845,4.097 C391.879,5.06033815 391.952666,6.02932846 392.066,7.004 L391.59,7.004 Z" id="THE-PIONEERS"></path>
                <path d="M44.368,78.392 C44.2119992,77.8519973 44.0050013,77.3540023 43.747,76.898 C43.4889987,76.4419977 43.1830018,76.0460017 42.829,75.71 C42.4749982,75.3739983 42.0670023,75.1130009 41.605,74.927 C41.1429977,74.7409991 40.6240029,74.648 40.048,74.648 C39.3039963,74.648 38.6740026,74.7919986 38.158,75.08 C37.6419974,75.3680014 37.2190017,75.7579975 36.889,76.25 C36.5589984,76.7420025 36.3190008,77.3119968 36.169,77.96 C36.0189993,78.6080032 35.944,79.2919964 35.944,80.012 C35.944,80.7320036 36.039999,81.4189967 36.232,82.073 C36.424001,82.7270033 36.7089981,83.2999975 37.087,83.792 C37.4650019,84.2840025 37.9389972,84.6769985 38.509,84.971 C39.0790029,85.2650015 39.7359963,85.412 40.48,85.412 C41.5960056,85.412 42.558996,85.1300028 43.369,84.566 C44.1790041,84.0019972 44.8959969,83.2340049 45.52,82.262 L45.97,82.622 C45.561998,83.2340031 45.154002,83.7739977 44.746,84.242 C44.337998,84.7100023 43.8940024,85.1059984 43.414,85.43 C42.9339976,85.7540016 42.4120028,85.9999992 41.848,86.168 C41.2839972,86.3360008 40.6480035,86.42 39.94,86.42 C39.135996,86.42 38.3740036,86.2670015 37.654,85.961 C36.9339964,85.6549985 36.3040027,85.2290027 35.764,84.683 C35.2239973,84.1369973 34.7950016,83.4830038 34.477,82.721 C34.1589984,81.9589962 34,81.1220046 34,80.21 C34,79.2979954 34.1589984,78.4610038 34.477,77.699 C34.7950016,76.9369962 35.2239973,76.2830027 35.764,75.737 C36.3040027,75.1909973 36.9339964,74.7650015 37.654,74.459 C38.3740036,74.1529985 39.135996,74 39.94,74 C40.3840022,74 40.7979981,74.0269997 41.182,74.081 C41.5660019,74.1350003 41.9349982,74.1919997 42.289,74.252 C42.6430018,74.3120003 42.9849984,74.3719997 43.315,74.432 C43.6450017,74.4920003 43.9719984,74.5279999 44.296,74.54 C44.296,74.7920013 44.3049999,75.0859983 44.323,75.422 C44.3410001,75.7580017 44.3679998,76.1029982 44.404,76.457 C44.4400002,76.8110018 44.4759998,77.1589983 44.512,77.501 C44.5480002,77.8430017 44.5839998,78.1399987 44.62,78.392 L44.368,78.392 Z M54.9616925,80.21 C54.9616925,79.2379951 55.1386908,78.3680038 55.4926925,77.6 C55.8466943,76.8319962 56.3236895,76.1810027 56.9236925,75.647 C57.5236955,75.1129973 58.2286885,74.7050014 59.0386925,74.423 C59.8486966,74.1409986 60.709688,74 61.6216925,74 C62.5336971,74 63.3946885,74.1409986 64.2046925,74.423 C65.0146966,74.7050014 65.7196895,75.1129973 66.3196925,75.647 C66.9196955,76.1810027 67.3966908,76.8319962 67.7506925,77.6 C68.1046943,78.3680038 68.2816925,79.2379951 68.2816925,80.21 C68.2816925,81.1820049 68.1046943,82.0519962 67.7506925,82.82 C67.3966908,83.5880038 66.9196955,84.2389973 66.3196925,84.773 C65.7196895,85.3070027 65.0146966,85.7149986 64.2046925,85.997 C63.3946885,86.2790014 62.5336971,86.42 61.6216925,86.42 C60.709688,86.42 59.8486966,86.2790014 59.0386925,85.997 C58.2286885,85.7149986 57.5236955,85.3070027 56.9236925,84.773 C56.3236895,84.2389973 55.8466943,83.5880038 55.4926925,82.82 C55.1386908,82.0519962 54.9616925,81.1820049 54.9616925,80.21 L54.9616925,80.21 Z M56.8696925,80.21 C56.8696925,80.9420037 56.9776914,81.6439966 57.1936925,82.316 C57.4096936,82.9880034 57.7216905,83.5789974 58.1296925,84.089 C58.5376946,84.5990025 59.0356896,85.0069985 59.6236925,85.313 C60.2116955,85.6190015 60.8776888,85.772 61.6216925,85.772 C62.3656962,85.772 63.0316896,85.6190015 63.6196925,85.313 C64.2076955,85.0069985 64.7056905,84.5990025 65.1136925,84.089 C65.5216946,83.5789974 65.8336914,82.9880034 66.0496925,82.316 C66.2656936,81.6439966 66.3736925,80.9420037 66.3736925,80.21 C66.3736925,79.4779963 66.2656936,78.7760034 66.0496925,78.104 C65.8336914,77.4319966 65.5216946,76.8410025 65.1136925,76.331 C64.7056905,75.8209974 64.2076955,75.4130015 63.6196925,75.107 C63.0316896,74.8009985 62.3656962,74.648 61.6216925,74.648 C60.8776888,74.648 60.2116955,74.8009985 59.6236925,75.107 C59.0356896,75.4130015 58.5376946,75.8209974 58.1296925,76.331 C57.7216905,76.8410025 57.4096936,77.4319966 57.1936925,78.104 C56.9776914,78.7760034 56.8696925,79.4779963 56.8696925,80.21 L56.8696925,80.21 Z M88.3793851,74.288 C88.8113872,74.3120001 89.2433829,74.3299999 89.6753851,74.342 C90.1073872,74.3540001 90.5393829,74.36 90.9713851,74.36 C91.355387,74.36 91.7363832,74.3540001 92.1143851,74.342 C92.4923869,74.3299999 92.8733831,74.3120001 93.2573851,74.288 L93.2573851,74.504 C92.7533825,74.5760004 92.3393867,74.7199989 92.0153851,74.936 C91.6913834,75.1520011 91.5293851,75.5419972 91.5293851,76.106 C91.5293851,76.4060015 91.5743846,76.8949966 91.6643851,77.573 C91.7543855,78.2510034 91.8683844,78.991996 92.0063851,79.796 C92.1443857,80.600004 92.2883843,81.403996 92.4383851,82.208 C92.5883858,83.012004 92.7293844,83.6959972 92.8613851,84.26 C92.9213854,84.5000012 92.9873847,84.7099991 93.0593851,84.89 C93.1313854,85.0700009 93.2333844,85.2289993 93.3653851,85.367 C93.4973857,85.5050007 93.6833839,85.6189996 93.9233851,85.709 C94.1633863,85.7990005 94.4813831,85.8679998 94.8773851,85.916 L94.8773851,86.132 C94.3973827,86.1079999 93.9203874,86.0900001 93.4463851,86.078 C92.9723827,86.0659999 92.4953875,86.06 92.0153851,86.06 C91.5593828,86.06 91.1123872,86.0659999 90.6743851,86.078 C90.2363829,86.0900001 89.7893873,86.1079999 89.3333851,86.132 L89.3333851,85.916 C89.5853863,85.8799998 89.8253839,85.8350003 90.0533851,85.781 C90.2813862,85.7269997 90.4823842,85.6460005 90.6563851,85.538 C90.8303859,85.4299995 90.9653846,85.2830009 91.0613851,85.097 C91.1573855,84.9109991 91.2053851,84.6620016 91.2053851,84.35 C91.2053851,84.2059993 91.1993851,84.0140012 91.1873851,83.774 C91.175385,83.5339988 91.1393854,83.2580016 91.0793851,82.946 L89.8373851,75.692 L89.8013851,75.692 C89.4653834,76.5560043 89.1113869,77.4109958 88.7393851,78.257 C88.3673832,79.1030042 88.0013869,79.9519957 87.6413851,80.804 C87.2813833,81.6560043 86.9303868,82.5169957 86.5883851,83.387 C86.2463833,84.2570044 85.9373864,85.1479954 85.6613851,86.06 L85.6253851,86.06 C85.0493822,84.1999907 84.3983887,82.4090086 83.6723851,80.687 C82.9463814,78.9649914 82.1693892,77.2400086 81.3413851,75.512 L81.3053851,75.512 C81.2093846,76.1720033 81.1133855,76.903996 81.0173851,77.708 C80.9213846,78.512004 80.8343854,79.2949962 80.7563851,80.057 C80.6783847,80.8190038 80.6153853,81.5149969 80.5673851,82.145 C80.5193848,82.7750032 80.4953851,83.2459984 80.4953851,83.558 C80.4953851,83.954002 80.5223848,84.2959986 80.5763851,84.584 C80.6303853,84.8720014 80.7353843,85.111999 80.8913851,85.304 C81.0473858,85.496001 81.2603837,85.6399995 81.5303851,85.736 C81.8003864,85.8320005 82.1513829,85.8919999 82.5833851,85.916 L82.5833851,86.132 C82.0793825,86.1079999 81.5873875,86.0900001 81.1073851,86.078 C80.6273827,86.0659999 80.1353876,86.06 79.6313851,86.06 C79.2593832,86.06 78.8903869,86.0659999 78.5243851,86.078 C78.1583832,86.0900001 77.7893869,86.1079999 77.4173851,86.132 L77.4173851,85.916 C77.6693863,85.8919999 77.9183838,85.8440004 78.1643851,85.772 C78.4103863,85.6999996 78.635384,85.6010006 78.8393851,85.475 C79.0433861,85.3489994 79.2143844,85.1990009 79.3523851,85.025 C79.4903857,84.8509991 79.5773849,84.6440012 79.6133851,84.404 C79.6853854,83.9839979 79.7513848,83.5430023 79.8113851,83.081 C79.8713854,82.6189977 79.9313848,82.1600023 79.9913851,81.704 L80.8553851,75.296 C80.6033838,75.091999 80.3033868,74.9240007 79.9553851,74.792 C79.6073833,74.6599993 79.2593868,74.5640003 78.9113851,74.504 L78.9113851,74.288 C79.4273876,74.3120001 79.9403825,74.3299999 80.4503851,74.342 C80.9603876,74.3540001 81.4733825,74.36 81.9893851,74.36 C82.3613869,74.36 82.7303832,74.3540001 83.0963851,74.342 C83.4623869,74.3299999 83.8313832,74.3120001 84.2033851,74.288 L84.2033851,74.504 C83.9753839,74.5640003 83.765386,74.6629993 83.5733851,74.801 C83.3813841,74.9390007 83.2853851,75.1579985 83.2853851,75.458 C83.2853851,75.662001 83.3183847,75.859999 83.3843851,76.052 C83.4503854,76.244001 83.5253846,76.441999 83.6093851,76.646 L86.1473851,82.874 C86.7593881,81.6019936 87.3413823,80.3270064 87.8933851,79.049 C88.4453878,77.7709936 88.9493828,76.4600067 89.4053851,75.116 C89.2733844,74.9599992 89.117386,74.8340005 88.9373851,74.738 C88.7573842,74.6419995 88.571386,74.5640003 88.3793851,74.504 L88.3793851,74.288 Z M109.125078,86.132 C108.669075,86.1079999 108.21608,86.0900001 107.766078,86.078 C107.316075,86.0659999 106.86308,86.06 106.407078,86.06 C105.963075,86.06 105.52208,86.0659999 105.084078,86.078 C104.646075,86.0900001 104.19308,86.1079999 103.725078,86.132 L103.725078,85.916 C104.16908,85.8799998 104.520076,85.8140005 104.778078,85.718 C105.036079,85.6219995 105.228077,85.472001 105.354078,85.268 C105.480078,85.063999 105.558077,84.7970016 105.588078,84.467 C105.618078,84.1369983 105.633078,83.7200025 105.633078,83.216 L105.633078,77.204 C105.633078,76.6999975 105.618078,76.2830016 105.588078,75.953 C105.558077,75.6229983 105.480078,75.356001 105.354078,75.152 C105.228077,74.947999 105.039079,74.7980005 104.787078,74.702 C104.535076,74.6059995 104.19308,74.5400002 103.761078,74.504 L103.761078,74.288 C104.15708,74.3120001 104.553076,74.3299999 104.949078,74.342 C105.34508,74.3540001 105.741076,74.36 106.137078,74.36 C106.71308,74.36 107.280075,74.3300003 107.838078,74.27 C108.39608,74.2099997 108.963075,74.18 109.539078,74.18 C109.98308,74.18 110.448075,74.2609992 110.934078,74.423 C111.42008,74.5850008 111.867076,74.8189985 112.275078,75.125 C112.68308,75.4310015 113.016076,75.8029978 113.274078,76.241 C113.532079,76.6790022 113.661078,77.1739972 113.661078,77.726 C113.661078,78.3020029 113.529079,78.787998 113.265078,79.184 C113.001076,79.580002 112.66808,79.9009988 112.266078,80.147 C111.864076,80.3930012 111.41708,80.5699995 110.925078,80.678 C110.433075,80.7860005 109.95308,80.84 109.485078,80.84 C109.125076,80.84 108.75308,80.8190002 108.369078,80.777 C107.985076,80.7349998 107.613079,80.6480007 107.253078,80.516 L107.253078,83.216 C107.253078,83.7200025 107.268077,84.1369983 107.298078,84.467 C107.328078,84.7970016 107.406077,85.063999 107.532078,85.268 C107.658078,85.472001 107.847076,85.6219995 108.099078,85.718 C108.351079,85.8140005 108.693075,85.8799998 109.125078,85.916 L109.125078,86.132 Z M107.253078,79.868 C107.541079,80.0240008 107.838076,80.1289997 108.144078,80.183 C108.450079,80.2370003 108.759076,80.264 109.071078,80.264 C109.443079,80.264 109.800076,80.2070006 110.142078,80.093 C110.484079,79.9789994 110.781076,79.817001 111.033078,79.607 C111.285079,79.3969989 111.486077,79.1360016 111.636078,78.824 C111.786078,78.5119984 111.861078,78.158002 111.861078,77.762 C111.861078,77.2939977 111.786078,76.8680019 111.636078,76.484 C111.486077,76.0999981 111.279079,75.7760013 111.015078,75.512 C110.751076,75.2479987 110.436079,75.0440007 110.070078,74.9 C109.704076,74.7559993 109.30508,74.684 108.873078,74.684 C108.657077,74.684 108.402079,74.6989998 108.108078,74.729 C107.814076,74.7590001 107.529079,74.8339994 107.253078,74.954 L107.253078,79.868 Z M125.01077,76.106 C125.01077,75.7699983 124.97777,75.5090009 124.91177,75.323 C124.84577,75.1369991 124.746771,74.9900005 124.61477,74.882 C124.482769,74.7739995 124.320771,74.6960002 124.12877,74.648 C123.936769,74.5999998 123.714771,74.5520002 123.46277,74.504 L123.46277,74.288 C123.966773,74.3120001 124.461768,74.3299999 124.94777,74.342 C125.433773,74.3540001 125.928768,74.36 126.43277,74.36 C126.792772,74.36 127.149768,74.3540001 127.50377,74.342 C127.857772,74.3299999 128.214768,74.3120001 128.57477,74.288 L128.57477,74.504 C128.190768,74.5400002 127.872771,74.5999996 127.62077,74.684 C127.368769,74.7680004 127.170771,74.8879992 127.02677,75.044 C126.882769,75.2000008 126.78077,75.4009988 126.72077,75.647 C126.66077,75.8930012 126.63077,76.1959982 126.63077,76.556 L126.63077,82.424 C126.63077,82.9880028 126.723769,83.4649981 126.90977,83.855 C127.095771,84.245002 127.350768,84.5629988 127.67477,84.809 C127.998772,85.0550012 128.373768,85.2349994 128.79977,85.349 C129.225772,85.4630006 129.678768,85.52 130.15877,85.52 C130.926774,85.52 131.556768,85.4060011 132.04877,85.178 C132.540773,84.9499989 132.930769,84.6710017 133.21877,84.341 C133.506772,84.0109984 133.70477,83.6570019 133.81277,83.279 C133.920771,82.9009981 133.97477,82.5680014 133.97477,82.28 L133.97477,77.24 C133.97477,76.7599976 133.95377,76.3550017 133.91177,76.025 C133.86977,75.6949984 133.785771,75.4250011 133.65977,75.215 C133.533769,75.004999 133.356771,74.8460005 133.12877,74.738 C132.900769,74.6299995 132.606772,74.5520002 132.24677,74.504 L132.24677,74.288 C132.618772,74.3120001 132.987768,74.3299999 133.35377,74.342 C133.719772,74.3540001 134.088768,74.36 134.46077,74.36 C134.772772,74.36 135.078769,74.3540001 135.37877,74.342 C135.678772,74.3299999 135.984769,74.3120001 136.29677,74.288 L136.29677,74.504 C136.044769,74.5400002 135.813771,74.5879997 135.60377,74.648 C135.393769,74.7080003 135.216771,74.8159992 135.07277,74.972 C134.928769,75.1280008 134.817771,75.3529985 134.73977,75.647 C134.66177,75.9410015 134.62277,76.3399975 134.62277,76.844 L134.62277,82.226 C134.62277,82.9460036 134.493771,83.5669974 134.23577,84.089 C133.977769,84.6110026 133.626772,85.0459983 133.18277,85.394 C132.738768,85.7420017 132.219773,85.9999992 131.62577,86.168 C131.031767,86.3360008 130.398773,86.42 129.72677,86.42 C129.114767,86.42 128.526773,86.3390008 127.96277,86.177 C127.398767,86.0149992 126.897772,85.7690017 126.45977,85.439 C126.021768,85.1089984 125.670771,84.6980025 125.40677,84.206 C125.142769,83.7139975 125.01077,83.1440032 125.01077,82.496 L125.01077,76.106 Z M148.510463,85.916 C148.942465,85.8799998 149.278461,85.8140005 149.518463,85.718 C149.758464,85.6219995 149.941462,85.472001 150.067463,85.268 C150.193463,85.063999 150.271462,84.7970017 150.301463,84.467 C150.331463,84.1369984 150.346463,83.7200025 150.346463,83.216 L150.346463,74.864 C149.710459,74.864 149.179465,74.8879998 148.753463,74.936 C148.327461,74.9840002 147.958464,75.106999 147.646463,75.305 C147.334461,75.503001 147.061464,75.805998 146.827463,76.214 C146.593461,76.622002 146.362464,77.1799965 146.134463,77.888 L145.900463,77.816 L146.152463,74.288 C146.656465,74.3120001 147.15446,74.3299999 147.646463,74.342 C148.138465,74.3540001 148.63646,74.36 149.140463,74.36 L153.370463,74.36 C153.850465,74.36 154.32446,74.3540001 154.792463,74.342 C155.260465,74.3299999 155.73446,74.3120001 156.214463,74.288 L156.466463,77.816 L156.232463,77.888 C156.004461,77.1799965 155.773464,76.622002 155.539463,76.214 C155.305461,75.805998 155.032464,75.503001 154.720463,75.305 C154.408461,75.106999 154.033465,74.9840002 153.595463,74.936 C153.15746,74.8879998 152.614466,74.864 151.966463,74.864 L151.966463,83.216 C151.966463,83.7200025 151.981462,84.1369984 152.011463,84.467 C152.041463,84.7970017 152.119462,85.063999 152.245463,85.268 C152.371463,85.472001 152.560461,85.6219995 152.812463,85.718 C153.064464,85.8140005 153.41246,85.8799998 153.856463,85.916 L153.856463,86.132 C153.40046,86.1079999 152.944465,86.0900001 152.488463,86.078 C152.03246,86.0659999 151.576465,86.06 151.120463,86.06 C150.67646,86.06 150.238465,86.0659999 149.806463,86.078 C149.37446,86.0900001 148.942465,86.1079999 148.510463,86.132 L148.510463,85.916 Z M169.454155,85.358 C169.562156,85.3820001 169.694154,85.4059999 169.850155,85.43 C170.006156,85.4540001 170.174154,85.4779999 170.354155,85.502 C170.534156,85.5260001 170.720154,85.5469999 170.912155,85.565 C171.104156,85.5830001 171.284154,85.592 171.452155,85.592 C172.172159,85.592 172.817152,85.5320006 173.387155,85.412 C173.957158,85.2919994 174.479153,85.1000013 174.953155,84.836 C175.427158,84.5719987 175.874153,84.236002 176.294155,83.828 C176.714157,83.419998 177.140153,82.9280029 177.572155,82.352 L177.770155,82.514 L176.132155,86.132 C175.928154,86.1079999 175.718156,86.0900001 175.502155,86.078 C175.286154,86.0659999 175.076156,86.06 174.872155,86.06 L168.104155,86.06 C167.756153,86.06 167.408157,86.0659999 167.060155,86.078 C166.712153,86.0900001 166.364157,86.1079999 166.016155,86.132 L166.016155,85.916 C166.448157,85.8799998 166.784154,85.8140005 167.024155,85.718 C167.264156,85.6219995 167.444155,85.472001 167.564155,85.268 C167.684156,85.063999 167.759155,84.7970017 167.789155,84.467 C167.819155,84.1369984 167.834155,83.7200025 167.834155,83.216 L167.834155,77.204 C167.834155,76.6999975 167.819155,76.2830017 167.789155,75.953 C167.759155,75.6229984 167.684156,75.356001 167.564155,75.152 C167.444155,74.947999 167.258156,74.7980005 167.006155,74.702 C166.754154,74.6059995 166.412157,74.5400002 165.980155,74.504 L165.980155,74.288 C166.388157,74.3000001 166.775153,74.3119999 167.141155,74.324 C167.507157,74.3360001 167.885153,74.345 168.275155,74.351 C168.665157,74.357 169.079153,74.36 169.517155,74.36 L171.002155,74.36 C171.842159,74.36 172.682151,74.3540001 173.522155,74.342 C174.362159,74.3299999 175.214151,74.3120001 176.078155,74.288 C176.066155,74.4200007 176.057155,74.5519993 176.051155,74.684 C176.045155,74.8160007 176.042155,74.9419994 176.042155,75.062 L176.042155,75.782 C176.042155,76.0460013 176.054155,76.3129987 176.078155,76.583 C176.102155,76.8530014 176.126155,77.1499984 176.150155,77.474 L175.916155,77.546 C175.760154,76.9699971 175.553156,76.4990018 175.295155,76.133 C175.037154,75.7669982 174.737157,75.482001 174.395155,75.278 C174.053153,75.073999 173.678157,74.9360004 173.270155,74.864 C172.862153,74.7919996 172.430157,74.756 171.974155,74.756 C171.134151,74.756 170.294159,74.7919996 169.454155,74.864 L169.454155,79.364 C169.694156,79.364 169.925154,79.3580001 170.147155,79.346 C170.369156,79.3339999 170.600154,79.328 170.840155,79.328 C171.668159,79.328 172.325153,79.1630017 172.811155,78.833 C173.297158,78.5029984 173.594155,77.9000044 173.702155,77.024 L173.918155,77.024 C173.918155,77.4560022 173.912155,77.8879978 173.900155,78.32 C173.888155,78.7520022 173.882155,79.1779979 173.882155,79.598 C173.882155,80.0300022 173.888155,80.4619978 173.900155,80.894 C173.912155,81.3260022 173.918155,81.7579978 173.918155,82.19 L173.702155,82.19 C173.594155,81.6859975 173.462156,81.2750016 173.306155,80.957 C173.150154,80.6389984 172.955156,80.3960008 172.721155,80.228 C172.487154,80.0599992 172.196157,79.9460003 171.848155,79.886 C171.500153,79.8259997 171.086158,79.796 170.606155,79.796 L169.454155,79.796 L169.454155,85.358 Z M199.235848,86.06 L195.995848,86.06 C195.239844,85.2319959 194.540851,84.3830043 193.898848,83.513 C193.256844,82.6429956 192.68385,81.7220049 192.179848,80.75 C192.059847,80.75 191.906849,80.7380001 191.720848,80.714 C191.534847,80.6899999 191.342849,80.6630001 191.144848,80.633 C190.946847,80.6029998 190.754849,80.5670002 190.568848,80.525 C190.382847,80.4829998 190.229848,80.4440002 190.109848,80.408 L190.109848,83.216 C190.109848,83.7200025 190.124848,84.1369983 190.154848,84.467 C190.184848,84.7970016 190.262847,85.063999 190.388848,85.268 C190.514848,85.472001 190.703846,85.6219995 190.955848,85.718 C191.207849,85.8140005 191.555845,85.8799998 191.999848,85.916 L191.999848,86.132 C191.543845,86.1079999 191.08785,86.0900001 190.631848,86.078 C190.175845,86.0659999 189.71985,86.06 189.263848,86.06 C188.819845,86.06 188.38185,86.0659999 187.949848,86.078 C187.517846,86.0900001 187.08585,86.1079999 186.653848,86.132 L186.653848,85.916 C187.08585,85.8799998 187.421846,85.8140005 187.661848,85.718 C187.901849,85.6219995 188.084847,85.472001 188.210848,85.268 C188.336848,85.063999 188.414848,84.7970016 188.444848,84.467 C188.474848,84.1369983 188.489848,83.7200025 188.489848,83.216 L188.489848,77.204 C188.489848,76.6999975 188.474848,76.2830016 188.444848,75.953 C188.414848,75.6229983 188.336848,75.356001 188.210848,75.152 C188.084847,74.947999 187.901849,74.7980005 187.661848,74.702 C187.421846,74.6059995 187.08585,74.5400002 186.653848,74.504 L186.653848,74.288 C187.03785,74.3120001 187.421846,74.3299999 187.805848,74.342 C188.18985,74.3540001 188.573846,74.36 188.957848,74.36 C189.125849,74.36 189.335846,74.3510001 189.587848,74.333 C189.839849,74.3149999 190.106846,74.2940001 190.388848,74.27 C190.670849,74.2459999 190.955846,74.2250001 191.243848,74.207 C191.531849,74.1889999 191.789847,74.18 192.017848,74.18 C192.53385,74.18 193.061845,74.2459993 193.601848,74.378 C194.14185,74.5100007 194.627846,74.7199986 195.059848,75.008 C195.49185,75.2960014 195.845846,75.6619978 196.121848,76.106 C196.397849,76.5500022 196.535848,77.0779969 196.535848,77.69 C196.535848,78.1100021 196.460848,78.4819984 196.310848,78.806 C196.160847,79.1300016 195.959849,79.4119988 195.707848,79.652 C195.455846,79.8920012 195.158849,80.0899992 194.816848,80.246 C194.474846,80.4020008 194.11785,80.5159996 193.745848,80.588 C193.913849,80.8760014 194.111847,81.1999982 194.339848,81.56 C194.567849,81.9200018 194.822846,82.2859981 195.104848,82.658 C195.386849,83.0300019 195.686846,83.3989982 196.004848,83.765 C196.322849,84.1310018 196.658846,84.4609985 197.012848,84.755 C197.366849,85.0490015 197.729846,85.294999 198.101848,85.493 C198.47385,85.691001 198.851846,85.8079998 199.235848,85.844 L199.235848,86.06 Z M190.109848,79.796 C190.64985,80.000001 191.207845,80.102 191.783848,80.102 C192.719852,80.102 193.445845,79.8860022 193.961848,79.454 C194.47785,79.0219978 194.735848,78.3200049 194.735848,77.348 C194.735848,76.951998 194.660848,76.5950016 194.510848,76.277 C194.360847,75.9589984 194.153849,75.6830012 193.889848,75.449 C193.625846,75.2149988 193.322849,75.0350006 192.980848,74.909 C192.638846,74.7829994 192.28185,74.72 191.909848,74.72 C191.609846,74.72 191.315849,74.7319999 191.027848,74.756 C190.739846,74.7800001 190.457849,74.8339996 190.181848,74.918 C190.157848,75.4940029 190.139848,76.0759971 190.127848,76.664 C190.115848,77.2520029 190.109848,77.8879966 190.109848,78.572 L190.109848,79.796 Z M228.901233,77.708 C228.745232,77.3239981 228.544234,76.9430019 228.298233,76.565 C228.052232,76.1869981 227.767234,75.8510015 227.443233,75.557 C227.119231,75.2629985 226.759235,75.0260009 226.363233,74.846 C225.967231,74.6659991 225.535235,74.576 225.067233,74.576 C224.383229,74.576 223.822235,74.7019987 223.384233,74.954 C222.946231,75.2060013 222.727233,75.6559968 222.727233,76.304 C222.727233,76.6880019 222.826232,77.0209986 223.024233,77.303 C223.222234,77.5850014 223.486231,77.8339989 223.816233,78.05 C224.146234,78.2660011 224.521231,78.4639991 224.941233,78.644 C225.361235,78.8240009 225.790231,79.0069991 226.228233,79.193 C226.666235,79.3790009 227.095231,79.5799989 227.515233,79.796 C227.935235,80.0120011 228.310231,80.2699985 228.640233,80.57 C228.970234,80.8700015 229.234232,81.217998 229.432233,81.614 C229.630234,82.010002 229.729233,82.4839972 229.729233,83.036 C229.729233,83.6240029 229.621234,84.1309979 229.405233,84.557 C229.189232,84.9830021 228.898235,85.3339986 228.532233,85.61 C228.166231,85.8860014 227.740235,86.0899993 227.254233,86.222 C226.76823,86.3540007 226.249236,86.42 225.697233,86.42 C225.397231,86.42 225.085234,86.3930003 224.761233,86.339 C224.437231,86.2849997 224.125234,86.2250003 223.825233,86.159 C223.525231,86.0929997 223.252234,86.0330003 223.006233,85.979 C222.760232,85.9249997 222.565233,85.898 222.421233,85.898 C222.289232,85.898 222.163233,85.9189998 222.043233,85.961 C221.923232,86.0030002 221.797233,86.0479998 221.665233,86.096 C221.557232,85.4119966 221.431233,84.7430033 221.287233,84.089 C221.143232,83.4349967 220.993234,82.7660034 220.837233,82.082 L221.071233,81.956 C221.287234,82.3760021 221.548231,82.8139977 221.854233,83.27 C222.160234,83.7260023 222.505231,84.1429981 222.889233,84.521 C223.273235,84.8990019 223.69623,85.2139987 224.158233,85.466 C224.620235,85.7180013 225.12123,85.844 225.661233,85.844 C226.009234,85.844 226.345231,85.8050004 226.669233,85.727 C226.993234,85.6489996 227.278232,85.5260008 227.524233,85.358 C227.770234,85.1899992 227.965232,84.9710013 228.109233,84.701 C228.253233,84.4309987 228.325233,84.098002 228.325233,83.702 C228.325233,83.1379972 228.151234,82.6670019 227.803233,82.289 C227.455231,81.9109981 227.023235,81.5810014 226.507233,81.299 C225.99123,81.0169986 225.430236,80.7560012 224.824233,80.516 C224.21823,80.2759988 223.657235,80.0060015 223.141233,79.706 C222.62523,79.4059985 222.193234,79.052002 221.845233,78.644 C221.497231,78.235998 221.323233,77.7200031 221.323233,77.096 C221.323233,76.6279977 221.413232,76.2020019 221.593233,75.818 C221.773234,75.4339981 222.016231,75.1070014 222.322233,74.837 C222.628234,74.5669987 222.982231,74.3600007 223.384233,74.216 C223.786235,74.0719993 224.21523,74 224.671233,74 C225.115235,74 225.514231,74.0299997 225.868233,74.09 C226.222235,74.1500003 226.567231,74.2159996 226.903233,74.288 C227.251234,74.3600004 227.593231,74.4289997 227.929233,74.495 C228.265234,74.5610003 228.625231,74.594 229.009233,74.594 C229.009233,75.1340027 229.018233,75.6589975 229.036233,76.169 C229.054233,76.6790026 229.093232,77.1919974 229.153233,77.708 L228.901233,77.708 Z M250.276925,78.392 C250.120924,77.8519973 249.913927,77.3540023 249.655925,76.898 C249.397924,76.4419977 249.091927,76.0460017 248.737925,75.71 C248.383924,75.3739983 247.975928,75.1130009 247.513925,74.927 C247.051923,74.7409991 246.532928,74.648 245.956925,74.648 C245.212922,74.648 244.582928,74.7919986 244.066925,75.08 C243.550923,75.3680014 243.127927,75.7579975 242.797925,76.25 C242.467924,76.7420025 242.227926,77.3119968 242.077925,77.96 C241.927925,78.6080032 241.852925,79.2919964 241.852925,80.012 C241.852925,80.7320036 241.948924,81.4189967 242.140925,82.073 C242.332926,82.7270033 242.617923,83.2999975 242.995925,83.792 C243.373927,84.2840025 243.847922,84.6769985 244.417925,84.971 C244.987928,85.2650015 245.644922,85.412 246.388925,85.412 C247.504931,85.412 248.467921,85.1300028 249.277925,84.566 C250.087929,84.0019972 250.804922,83.2340049 251.428925,82.262 L251.878925,82.622 C251.470923,83.2340031 251.062927,83.7739977 250.654925,84.242 C250.246923,84.7100023 249.802928,85.1059984 249.322925,85.43 C248.842923,85.7540016 248.320928,85.9999992 247.756925,86.168 C247.192922,86.3360008 246.556929,86.42 245.848925,86.42 C245.044921,86.42 244.282929,86.2670015 243.562925,85.961 C242.842922,85.6549985 242.212928,85.2290027 241.672925,84.683 C241.132923,84.1369973 240.703927,83.4830038 240.385925,82.721 C240.067924,81.9589962 239.908925,81.1220046 239.908925,80.21 C239.908925,79.2979954 240.067924,78.4610038 240.385925,77.699 C240.703927,76.9369962 241.132923,76.2830027 241.672925,75.737 C242.212928,75.1909973 242.842922,74.7650015 243.562925,74.459 C244.282929,74.1529985 245.044921,74 245.848925,74 C246.292927,74 246.706923,74.0269997 247.090925,74.081 C247.474927,74.1350003 247.843924,74.1919997 248.197925,74.252 C248.551927,74.3120003 248.893924,74.3719997 249.223925,74.432 C249.553927,74.4920003 249.880924,74.5279999 250.204925,74.54 C250.204925,74.7920013 250.213925,75.0859983 250.231925,75.422 C250.249925,75.7580017 250.276925,76.1029982 250.312925,76.457 C250.348925,76.8110018 250.384925,77.1589983 250.420925,77.501 C250.456925,77.8430017 250.492925,78.1399987 250.528925,78.392 L250.276925,78.392 Z M260.870618,85.916 C261.30262,85.8799998 261.638617,85.8140005 261.878618,85.718 C262.118619,85.6219995 262.301617,85.472001 262.427618,85.268 C262.553618,85.063999 262.631618,84.7970017 262.661618,84.467 C262.691618,84.1369984 262.706618,83.7200025 262.706618,83.216 L262.706618,77.204 C262.706618,76.6999975 262.691618,76.2830017 262.661618,75.953 C262.631618,75.6229984 262.553618,75.356001 262.427618,75.152 C262.301617,74.947999 262.112619,74.7980005 261.860618,74.702 C261.608617,74.6059995 261.26662,74.5400002 260.834618,74.504 L260.834618,74.288 C261.33862,74.3120001 261.827615,74.3299999 262.301618,74.342 C262.77562,74.3540001 263.264615,74.36 263.768618,74.36 C264.16462,74.36 264.560616,74.3540001 264.956618,74.342 C265.35262,74.3299999 265.742616,74.3120001 266.126618,74.288 L266.126618,74.504 C265.706616,74.5400002 265.376619,74.6059995 265.136618,74.702 C264.896617,74.7980005 264.716618,74.947999 264.596618,75.152 C264.476617,75.356001 264.401618,75.6229984 264.371618,75.953 C264.341618,76.2830017 264.326618,76.6999975 264.326618,77.204 L264.326618,83.216 C264.326618,83.7200025 264.341618,84.1369984 264.371618,84.467 C264.401618,84.7970017 264.479617,85.063999 264.605618,85.268 C264.731618,85.472001 264.920617,85.6219995 265.172618,85.718 C265.424619,85.8140005 265.772616,85.8799998 266.216618,85.916 L266.216618,86.132 C265.760616,86.1079999 265.30462,86.0900001 264.848618,86.078 C264.392616,86.0659999 263.93662,86.06 263.480618,86.06 C263.036616,86.06 262.59862,86.0659999 262.166618,86.078 C261.734616,86.0900001 261.30262,86.1079999 260.870618,86.132 L260.870618,85.916 Z M279.47431,85.358 C279.582311,85.3820001 279.71431,85.4059999 279.87031,85.43 C280.026311,85.4540001 280.194309,85.4779999 280.37431,85.502 C280.554311,85.5260001 280.740309,85.5469999 280.93231,85.565 C281.124311,85.5830001 281.304309,85.592 281.47231,85.592 C282.192314,85.592 282.837307,85.5320006 283.40731,85.412 C283.977313,85.2919994 284.499308,85.1000013 284.97331,84.836 C285.447313,84.5719987 285.894308,84.236002 286.31431,83.828 C286.734312,83.419998 287.160308,82.9280029 287.59231,82.352 L287.79031,82.514 L286.15231,86.132 C285.948309,86.1079999 285.738311,86.0900001 285.52231,86.078 C285.306309,86.0659999 285.096311,86.06 284.89231,86.06 L278.12431,86.06 C277.776309,86.06 277.428312,86.0659999 277.08031,86.078 C276.732309,86.0900001 276.384312,86.1079999 276.03631,86.132 L276.03631,85.916 C276.468312,85.8799998 276.804309,85.8140005 277.04431,85.718 C277.284312,85.6219995 277.46431,85.472001 277.58431,85.268 C277.704311,85.063999 277.77931,84.7970017 277.80931,84.467 C277.83931,84.1369984 277.85431,83.7200025 277.85431,83.216 L277.85431,77.204 C277.85431,76.6999975 277.83931,76.2830017 277.80931,75.953 C277.77931,75.6229984 277.704311,75.356001 277.58431,75.152 C277.46431,74.947999 277.278312,74.7980005 277.02631,74.702 C276.774309,74.6059995 276.432312,74.5400002 276.00031,74.504 L276.00031,74.288 C276.408312,74.3000001 276.795309,74.3119999 277.16131,74.324 C277.527312,74.3360001 277.905308,74.345 278.29531,74.351 C278.685312,74.357 279.099308,74.36 279.53731,74.36 L281.02231,74.36 C281.862315,74.36 282.702306,74.3540001 283.54231,74.342 C284.382315,74.3299999 285.234306,74.3120001 286.09831,74.288 C286.08631,74.4200007 286.07731,74.5519993 286.07131,74.684 C286.06531,74.8160007 286.06231,74.9419994 286.06231,75.062 L286.06231,75.782 C286.06231,76.0460013 286.07431,76.3129987 286.09831,76.583 C286.12231,76.8530014 286.14631,77.1499984 286.17031,77.474 L285.93631,77.546 C285.78031,76.9699971 285.573312,76.4990018 285.31531,76.133 C285.057309,75.7669982 284.757312,75.482001 284.41531,75.278 C284.073309,75.073999 283.698312,74.9360004 283.29031,74.864 C282.882308,74.7919996 282.450313,74.756 281.99431,74.756 C281.154306,74.756 280.314315,74.7919996 279.47431,74.864 L279.47431,79.364 C279.714312,79.364 279.945309,79.3580001 280.16731,79.346 C280.389311,79.3339999 280.620309,79.328 280.86031,79.328 C281.688314,79.328 282.345308,79.1630017 282.83131,78.833 C283.317313,78.5029984 283.61431,77.9000044 283.72231,77.024 L283.93831,77.024 C283.93831,77.4560022 283.93231,77.8879978 283.92031,78.32 C283.90831,78.7520022 283.90231,79.1779979 283.90231,79.598 C283.90231,80.0300022 283.90831,80.4619978 283.92031,80.894 C283.93231,81.3260022 283.93831,81.7579978 283.93831,82.19 L283.72231,82.19 C283.61431,81.6859975 283.482311,81.2750016 283.32631,80.957 C283.17031,80.6389984 282.975312,80.3960008 282.74131,80.228 C282.507309,80.0599992 282.216312,79.9460003 281.86831,79.886 C281.520309,79.8259997 281.106313,79.796 280.62631,79.796 L279.47431,79.796 L279.47431,85.358 Z M296.260003,74.288 C296.680005,74.3120001 297.079001,74.3299999 297.457003,74.342 C297.835005,74.3540001 298.276,74.36 298.780003,74.36 C299.044004,74.36 299.302002,74.3540001 299.554003,74.342 C299.806004,74.3299999 300.064002,74.3120001 300.328003,74.288 C300.484004,74.5040011 300.742001,74.8309978 301.102003,75.269 C301.462005,75.7070022 301.873001,76.2079972 302.335003,76.772 C302.797005,77.3360028 303.292,77.9359968 303.820003,78.572 C304.348006,79.2080032 304.858,79.828997 305.350003,80.435 C305.842005,81.041003 306.295001,81.6049974 306.709003,82.127 C307.123005,82.6490026 307.450002,83.0779983 307.690003,83.414 L307.726003,83.414 C307.726003,83.0539982 307.729003,82.6970018 307.735003,82.343 C307.741003,81.9889982 307.744003,81.6320018 307.744003,81.272 L307.744003,79.184 C307.744003,78.4159962 307.717003,77.7470029 307.663003,77.177 C307.609003,76.6069972 307.501004,76.1300019 307.339003,75.746 C307.177002,75.3619981 306.949004,75.068001 306.655003,74.864 C306.361001,74.659999 305.974005,74.5400002 305.494003,74.504 L305.494003,74.288 C305.914005,74.3120001 306.337001,74.3299999 306.763003,74.342 C307.189005,74.3540001 307.612001,74.36 308.032003,74.36 C308.416005,74.36 308.806001,74.3540001 309.202003,74.342 C309.598005,74.3299999 309.988001,74.3120001 310.372003,74.288 L310.372003,74.504 C309.615999,74.6000005 309.097004,74.8189983 308.815003,75.161 C308.533001,75.5030017 308.392003,76.0279965 308.392003,76.736 L308.392003,86.276 L307.726003,86.276 C307.066,85.2439948 306.367007,84.2420049 305.629003,83.27 C304.890999,82.2979951 304.159006,81.3740044 303.433003,80.498 C302.706999,79.6219956 302.005006,78.8090038 301.327003,78.059 C300.648999,77.3089963 300.040006,76.6400029 299.500003,76.052 C299.488003,76.3640016 299.479003,76.6699985 299.473003,76.97 C299.467003,77.2700015 299.464003,77.5759984 299.464003,77.888 L299.464003,81.038 C299.464003,82.1060053 299.485003,82.9489969 299.527003,83.567 C299.569003,84.1850031 299.671002,84.6589984 299.833003,84.989 C299.995004,85.3190017 300.235001,85.5409994 300.553003,85.655 C300.871004,85.7690006 301.312,85.8559997 301.876003,85.916 L301.876003,86.132 C301.264,86.1079999 300.670006,86.0900001 300.094003,86.078 C299.518,86.0659999 298.924006,86.06 298.312003,86.06 C297.964001,86.06 297.622005,86.0659999 297.286003,86.078 C296.950001,86.0900001 296.608005,86.1079999 296.260003,86.132 L296.260003,85.916 C296.668005,85.8559997 297.025001,85.7990003 297.331003,85.745 C297.637004,85.6909997 297.889002,85.6010006 298.087003,85.475 C298.285004,85.3489994 298.435002,85.1690012 298.537003,84.935 C298.639003,84.7009988 298.696003,84.3740021 298.708003,83.954 L298.924003,75.692 C298.540001,75.3799984 298.120005,75.1340009 297.664003,74.954 C297.208001,74.7739991 296.740005,74.6240006 296.260003,74.504 L296.260003,74.288 Z M330.181695,78.392 C330.025695,77.8519973 329.818697,77.3540023 329.560695,76.898 C329.302694,76.4419977 328.996697,76.0460017 328.642695,75.71 C328.288694,75.3739983 327.880698,75.1130009 327.418695,74.927 C326.956693,74.7409991 326.437698,74.648 325.861695,74.648 C325.117692,74.648 324.487698,74.7919986 323.971695,75.08 C323.455693,75.3680014 323.032697,75.7579975 322.702695,76.25 C322.372694,76.7420025 322.132696,77.3119968 321.982695,77.96 C321.832695,78.6080032 321.757695,79.2919964 321.757695,80.012 C321.757695,80.7320036 321.853694,81.4189967 322.045695,82.073 C322.237696,82.7270033 322.522693,83.2999975 322.900695,83.792 C323.278697,84.2840025 323.752693,84.6769985 324.322695,84.971 C324.892698,85.2650015 325.549692,85.412 326.293695,85.412 C327.409701,85.412 328.372691,85.1300028 329.182695,84.566 C329.992699,84.0019972 330.709692,83.2340049 331.333695,82.262 L331.783695,82.622 C331.375693,83.2340031 330.967697,83.7739977 330.559695,84.242 C330.151693,84.7100023 329.707698,85.1059984 329.227695,85.43 C328.747693,85.7540016 328.225698,85.9999992 327.661695,86.168 C327.097693,86.3360008 326.461699,86.42 325.753695,86.42 C324.949691,86.42 324.187699,86.2670015 323.467695,85.961 C322.747692,85.6549985 322.117698,85.2290027 321.577695,84.683 C321.037693,84.1369973 320.608697,83.4830038 320.290695,82.721 C319.972694,81.9589962 319.813695,81.1220046 319.813695,80.21 C319.813695,79.2979954 319.972694,78.4610038 320.290695,77.699 C320.608697,76.9369962 321.037693,76.2830027 321.577695,75.737 C322.117698,75.1909973 322.747692,74.7650015 323.467695,74.459 C324.187699,74.1529985 324.949691,74 325.753695,74 C326.197698,74 326.611693,74.0269997 326.995695,74.081 C327.379697,74.1350003 327.748694,74.1919997 328.102695,74.252 C328.456697,74.3120003 328.798694,74.3719997 329.128695,74.432 C329.458697,74.4920003 329.785694,74.5279999 330.109695,74.54 C330.109695,74.7920013 330.118695,75.0859983 330.136695,75.422 C330.154695,75.7580017 330.181695,76.1029982 330.217695,76.457 C330.253696,76.8110018 330.289695,77.1589983 330.325695,77.501 C330.361696,77.8430017 330.397695,78.1399987 330.433695,78.392 L330.181695,78.392 Z M344.069388,85.358 C344.177388,85.3820001 344.309387,85.4059999 344.465388,85.43 C344.621389,85.4540001 344.789387,85.4779999 344.969388,85.502 C345.149389,85.5260001 345.335387,85.5469999 345.527388,85.565 C345.719389,85.5830001 345.899387,85.592 346.067388,85.592 C346.787392,85.592 347.432385,85.5320006 348.002388,85.412 C348.572391,85.2919994 349.094386,85.1000013 349.568388,84.836 C350.04239,84.5719987 350.489386,84.236002 350.909388,83.828 C351.32939,83.419998 351.755386,82.9280029 352.187388,82.352 L352.385388,82.514 L350.747388,86.132 C350.543387,86.1079999 350.333389,86.0900001 350.117388,86.078 C349.901387,86.0659999 349.691389,86.06 349.487388,86.06 L342.719388,86.06 C342.371386,86.06 342.02339,86.0659999 341.675388,86.078 C341.327386,86.0900001 340.97939,86.1079999 340.631388,86.132 L340.631388,85.916 C341.06339,85.8799998 341.399387,85.8140005 341.639388,85.718 C341.879389,85.6219995 342.059387,85.472001 342.179388,85.268 C342.299389,85.063999 342.374388,84.7970017 342.404388,84.467 C342.434388,84.1369984 342.449388,83.7200025 342.449388,83.216 L342.449388,77.204 C342.449388,76.6999975 342.434388,76.2830017 342.404388,75.953 C342.374388,75.6229984 342.299389,75.356001 342.179388,75.152 C342.059387,74.947999 341.873389,74.7980005 341.621388,74.702 C341.369387,74.6059995 341.02739,74.5400002 340.595388,74.504 L340.595388,74.288 C341.00339,74.3000001 341.390386,74.3119999 341.756388,74.324 C342.12239,74.3360001 342.500386,74.345 342.890388,74.351 C343.28039,74.357 343.694386,74.36 344.132388,74.36 L345.617388,74.36 C346.457392,74.36 347.297384,74.3540001 348.137388,74.342 C348.977392,74.3299999 349.829384,74.3120001 350.693388,74.288 C350.681388,74.4200007 350.672388,74.5519993 350.666388,74.684 C350.660388,74.8160007 350.657388,74.9419994 350.657388,75.062 L350.657388,75.782 C350.657388,76.0460013 350.669388,76.3129987 350.693388,76.583 C350.717388,76.8530014 350.741388,77.1499984 350.765388,77.474 L350.531388,77.546 C350.375387,76.9699971 350.168389,76.4990018 349.910388,76.133 C349.652387,75.7669982 349.35239,75.482001 349.010388,75.278 C348.668386,75.073999 348.29339,74.9360004 347.885388,74.864 C347.477386,74.7919996 347.04539,74.756 346.589388,74.756 C345.749384,74.756 344.909392,74.7919996 344.069388,74.864 L344.069388,79.364 C344.309389,79.364 344.540387,79.3580001 344.762388,79.346 C344.984389,79.3339999 345.215387,79.328 345.455388,79.328 C346.283392,79.328 346.940385,79.1630017 347.426388,78.833 C347.91239,78.5029984 348.209387,77.9000044 348.317388,77.024 L348.533388,77.024 C348.533388,77.4560022 348.527388,77.8879978 348.515388,78.32 C348.503388,78.7520022 348.497388,79.1779979 348.497388,79.598 C348.497388,80.0300022 348.503388,80.4619978 348.515388,80.894 C348.527388,81.3260022 348.533388,81.7579978 348.533388,82.19 L348.317388,82.19 C348.209387,81.6859975 348.077389,81.2750016 347.921388,80.957 C347.765387,80.6389984 347.570389,80.3960008 347.336388,80.228 C347.102387,80.0599992 346.81139,79.9460003 346.463388,79.886 C346.115386,79.8259997 345.70139,79.796 345.221388,79.796 L344.069388,79.796 L344.069388,85.358 Z" id="COMPUTER-SCIENCE"></path>
                <path d="M193.01,45.592 C193.458002,45.592 193.866331,45.659666 194.235,45.795 C194.603669,45.930334 194.920999,46.1193321 195.187,46.362 C195.453001,46.6046679 195.658333,46.8986649 195.803,47.244 C195.947667,47.5893351 196.02,47.9719979 196.02,48.392 C196.02,48.8120021 195.947667,49.1946649 195.803,49.54 C195.658333,49.8853351 195.453001,50.1793321 195.187,50.422 C194.920999,50.6646679 194.603669,50.853666 194.235,50.989 C193.866331,51.124334 193.458002,51.192 193.01,51.192 C192.561998,51.192 192.153669,51.124334 191.785,50.989 C191.416331,50.853666 191.099001,50.6646679 190.833,50.422 C190.566999,50.1793321 190.361667,49.8853351 190.217,49.54 C190.072333,49.1946649 190,48.8120021 190,48.392 C190,47.9719979 190.072333,47.5893351 190.217,47.244 C190.361667,46.8986649 190.566999,46.6046679 190.833,46.362 C191.099001,46.1193321 191.416331,45.930334 191.785,45.795 C192.153669,45.659666 192.561998,45.592 193.01,45.592 L193.01,45.592 Z M192.758,46.012 C192.496665,46.012 192.270334,46.0773327 192.079,46.208 C191.887666,46.3386673 191.729001,46.5089989 191.603,46.719 C191.476999,46.929001 191.383667,47.1669987 191.323,47.433 C191.262333,47.6990013 191.232,47.9626654 191.232,48.224 C191.232,48.5226682 191.271666,48.8213318 191.351,49.12 C191.430334,49.4186682 191.553999,49.6916654 191.722,49.939 C191.890001,50.1863346 192.099999,50.3869992 192.352,50.541 C192.604001,50.6950008 192.907332,50.772 193.262,50.772 C193.523335,50.772 193.749666,50.7066673 193.941,50.576 C194.132334,50.4453327 194.290999,50.275001 194.417,50.065 C194.543001,49.8549989 194.636333,49.6193346 194.697,49.358 C194.757667,49.0966654 194.788,48.830668 194.788,48.56 C194.788,48.2706652 194.746,47.9743348 194.662,47.671 C194.578,47.3676651 194.452001,47.0923346 194.284,46.845 C194.115999,46.5976654 193.906001,46.3970008 193.654,46.243 C193.401999,46.0889992 193.103335,46.012 192.758,46.012 L192.758,46.012 Z M199.762,50.856 C200.004668,50.8466666 200.193666,50.8093337 200.329,50.744 C200.464334,50.6786663 200.567,50.5853339 200.637,50.464 C200.707,50.3426661 200.749,50.1980008 200.763,50.03 C200.777,49.8619992 200.784,49.6706677 200.784,49.456 L200.784,46.306 L200.098,46.306 L200.182,45.886 L200.784,45.886 L200.784,44.388 C200.784,44.0706651 200.828333,43.716002 200.917,43.324 C201.005667,42.931998 201.147999,42.5633351 201.344,42.218 C201.540001,41.8726649 201.796665,41.5833345 202.114,41.35 C202.431335,41.1166655 202.818664,41 203.276,41 C203.724002,41 204.104332,41.1166655 204.417,41.35 C204.729668,41.5833345 204.886,41.895998 204.886,42.288 C204.886,42.5120011 204.848667,42.6659996 204.774,42.75 C204.699333,42.8340004 204.554668,42.876 204.34,42.876 C204.199999,42.876 204.102,42.8340004 204.046,42.75 C203.99,42.6659996 203.962,42.4746682 203.962,42.176 C203.962,42.1106663 203.948,42.0266672 203.92,41.924 C203.892,41.8213328 203.843,41.7210005 203.773,41.623 C203.703,41.5249995 203.609667,41.4433337 203.493,41.378 C203.376333,41.3126663 203.234001,41.28 203.066,41.28 C202.823332,41.28 202.627334,41.3499993 202.478,41.49 C202.328666,41.6300007 202.207334,41.8003323 202.114,42.001 C202.020666,42.2016677 201.957667,42.4139989 201.925,42.638 C201.892333,42.8620011 201.876,43.0533325 201.876,43.212 L201.876,45.886 L203.654,45.886 L203.654,46.306 L201.876,46.306 L201.876,49.456 C201.876,49.6706677 201.887667,49.8619992 201.911,50.03 C201.934333,50.1980008 201.997333,50.3426661 202.1,50.464 C202.202667,50.5853339 202.358999,50.6786663 202.569,50.744 C202.779001,50.8093337 203.075331,50.8466666 203.458,50.856 L203.458,51.024 C203.131332,51.0053332 202.809335,50.9913334 202.492,50.982 C202.174665,50.9726666 201.852668,50.968 201.526,50.968 C201.227332,50.968 200.933335,50.9726666 200.644,50.982 C200.354665,50.9913334 200.060668,51.0053332 199.762,51.024 L199.762,50.856 Z" id="of"></path>
            </g>
        </g>
    </g>
</svg>