<?xml version="1.0" encoding="UTF-8" standalone="no"?>
<svg width="461px" height="574px" viewBox="0 0 461 574" version="1.1" xmlns="http://www.w3.org/2000/svg" xmlns:xlink="http://www.w3.org/1999/xlink">
    <!-- Generator: Sketch 3.6.1 (26313) - http://www.bohemiancoding.com/sketch -->
    <title>Artboard 21</title>
    <desc>Created with Sketch.</desc>
    <defs></defs>
    <g id="Iteration-3" stroke="none" stroke-width="1" fill="none" fill-rule="evenodd">
        <g id="Artboard-21" stroke="#9F9F9F">
            <g id="Vaccum-Copy" transform="translate(227.815045, 285.623805) rotate(-8.000000) translate(-227.815045, -285.623805) translate(-28.684955, 21.123805)">
                <path d="M210.004722,468.541288 L184.923995,494.638002 L29.3271225,345.094181 L54.407849,318.998325 L210.004722,468.541288 L210.004722,468.541288 Z" id="Stroke-1" fill="#272727"></path>
                <path d="M210.26442,458.564041 L210.06551,468.59959 L54.4077633,318.998325 L63.9726142,317.963476 L210.26442,458.564041 L210.26442,458.564041 Z" id="Stroke-2" fill="#272727"></path>
                <path d="M256.881494,410.278863 L210.339869,458.704136 L63.8345772,317.898658 L110.375345,269.472528 L256.881494,410.278863 L256.881494,410.278863 Z" id="Stroke-3" fill="#272727"></path>
                <path d="M3.67135606,450.088054 C-1.04933857,454.999942 -0.405451597,462.354486 4.23979423,466.818826 C8.88504006,471.283167 16.2593035,471.634689 20.9799981,466.722801 L115.699973,368.169512 L98.3913308,351.533908 L3.67135606,450.088054 L3.67135606,450.088054 Z" id="Stroke-4"></path>
                <path d="M52.5059389,497.022784 C47.7852443,501.934673 48.120477,508.992566 52.7648655,513.456906 C57.4101113,517.921246 64.4757206,517.975261 69.1964152,513.063372 L163.91639,414.510083 L147.225914,398.468638 L52.5059389,497.022784 L52.5059389,497.022784 Z" id="Stroke-6"></path>
                <path d="M64.8691689,508.904942 C60.1484743,513.816831 60.4837071,520.874724 65.1280955,525.339064 C69.7733413,529.802547 76.8389506,529.857419 81.5596452,524.94553 L176.27962,426.392241 L167.933953,418.371519 L159.589144,410.350796 L64.8691689,508.904942 L64.8691689,508.904942 Z" id="Stroke-8"></path>
                <path d="M485.434533,167.385235 C523.176084,128.115846 521.938038,65.6862452 482.667791,27.9446946 C443.398402,-9.79685603 380.968802,-8.5588097 343.227251,30.7105792 L116.502731,267.145704 C114.268418,269.470042 114.342152,273.165318 116.666489,275.398775 L250.190299,403.72862 C252.514637,405.962076 256.209914,405.8892 258.444227,403.564862 L485.434533,167.385235 L485.434533,167.385235 Z" id="Stroke-10"></path>
                <path d="M199.955884,323.762231 C203.055287,326.740744 203.153027,331.668066 200.174514,334.767468 C197.196001,337.866014 192.26868,337.963754 189.169277,334.985241 C186.069874,332.006728 185.972134,327.079406 188.950647,323.980861 C191.930017,320.881458 196.856481,320.783718 199.955884,323.762231 L199.955884,323.762231 Z" id="Stroke-12"></path>
                <path d="M258.443027,263.960564 C258.443027,263.960564 275.060627,279.931705 287.57827,291.961502 C300.095912,303.992157 285.62346,313.822794 285.62346,313.822794 C285.62346,313.822794 258.606785,336.622909 232.689263,348.145999 C206.770883,359.66909 185.77811,337.329384 185.77811,337.329384 C156.203036,308.904904 175.392754,283.952783 207.555379,238.869549 C207.555379,238.869549 216.860446,223.995846 229.378089,236.025643 L258.443027,263.960564 L258.443027,263.960564 Z" id="Stroke-14"></path>
                <path d="M353.15117,56.6082105 L345.192178,64.888717 L342.023329,61.8433289 L349.98232,53.5628224 L353.15117,56.6082105 L353.15117,56.6082105 Z" id="Stroke-16"></path>
                <path d="M358.828264,53.8727626 L346.777032,66.4118398 L343.608182,63.3664516 L355.659414,50.8273744 L358.828264,53.8727626 L358.828264,53.8727626 Z" id="Stroke-18"></path>
                <path d="M463.387363,155.136378 L451.721949,167.274205 L448.553099,164.227959 L460.218513,152.09099 L463.387363,155.136378 L463.387363,155.136378 Z" id="Stroke-20"></path>
                <path d="M461.265194,160.515964 L453.306202,168.79647 L450.137353,165.751082 L458.096344,157.470575 L461.265194,160.515964 L461.265194,160.515964 Z" id="Stroke-22"></path>
                <path d="M229.752247,236.862782 L233.834199,220.093428 L224.253058,210.885244 L228.699393,188.730731 L266.88592,148.997503" id="Stroke-24"></path>
                <path d="M230.309968,196.952936 L226.149137,217.463865 L234.855758,225.831824 L232.095018,238.707849 L235.100967,241.526033 L238.608479,224.682087 L229.83927,216.254112 L233.51054,198.572513 L260.342879,170.653883 L304.231793,212.835767 L348.121564,255.017651 L321.289225,282.936282 L303.767097,287.305454 L294.997888,278.877479 L277.926738,282.685929 L281.274779,285.904506 L293.997334,282.673068 L302.703955,291.041027 L323.033979,286.069122 L352.970007,254.920768 L306.60843,210.363104 L260.245996,165.804582 L230.309968,196.952936 L230.309968,196.952936 Z" id="Stroke-26"></path>
                <path d="M367.780265,53.917689 L351.145518,71.226331 L397.507095,115.783995 L443.869529,160.342517 L460.504276,143.033875 L458.031613,140.658095 L443.772646,155.493217 L399.883732,113.31219 L355.993961,71.1303053 L370.252928,56.2943264 L367.780265,53.917689 L367.780265,53.917689 Z" id="Stroke-28"></path>
                <path d="M378.66667,52.4890487 L364.407703,67.3250276 L398.917816,100.492494 L447.241062,146.935521 L461.500029,132.099543 L459.027365,129.722905 L447.108169,142.051069 L401.294453,98.0198312 L369.257004,67.2290018 L381.139333,54.8656861 L378.66667,52.4890487 L378.66667,52.4890487 Z" id="Stroke-30"></path>
                <path d="M274.601246,155.817904 L374.411443,51.9669086 L376.884107,54.343546 L277.073909,158.194541 L274.601246,155.817904 L274.601246,155.817904 Z" id="Stroke-32"></path>
                <path d="M242.677227,248.879034 L248.467066,229.202328 L240.030518,221.68917 L241.341441,201.147375 L268.183211,173.630852" id="Stroke-34"></path>
                <path d="M255.830098,261.251094 L260.555079,241.018811 L251.817593,232.619987 L253.849567,213.983275 L241.23847,201.131256" id="Stroke-36"></path>
                <path d="M283.235505,288.413779 L300.035725,283.719663 L309.617723,292.927847 L331.313542,287.353209 L369.500926,247.619982" id="Stroke-38"></path>
                <path d="M270.922431,276.025343 L290.353928,269.459582 L298.196317,277.590905 L318.669522,275.467193 L345.099754,247.554564" id="Stroke-40"></path>
                <path d="M258.038433,263.373521 L278.067519,257.849468 L286.805862,266.247434 L305.347407,263.477263 L318.689842,275.569649" id="Stroke-42"></path>
                <path d="M250.634762,184.932569 L333.630163,264.699105 L331.208085,267.218066 L248.212683,187.452388 L250.634762,184.932569 L250.634762,184.932569 Z" id="Stroke-44"></path>
                <path d="M299.934298,180.003361 L299.49618,180.287152 C298.599368,180.870165 297.399904,180.614668 296.817748,179.717856 L287.853915,165.911582 C287.271759,165.013913 287.527256,163.814448 288.424068,163.232292 L288.862185,162.947644 C289.758997,162.365488 290.958462,162.620985 291.540618,163.517797 L300.504451,177.324071 C301.086607,178.221741 300.83111,179.421205 299.934298,180.003361 L299.934298,180.003361 Z" id="Stroke-46"></path>
                <path d="M305.492474,174.220125 L305.054357,174.503915 C304.157545,175.086929 302.95808,174.831432 302.375924,173.93462 L293.412091,160.128345 C292.829935,159.230676 293.085432,158.031212 293.982244,157.449055 L294.420362,157.164408 C295.317174,156.582252 296.516638,156.837749 297.098794,157.734561 L306.062627,171.540835 C306.644783,172.438504 306.389286,173.637969 305.492474,174.220125 L305.492474,174.220125 Z" id="Stroke-48"></path>
                <path d="M311.050736,168.436888 L310.612619,168.720678 C309.715807,169.303692 308.516342,169.048195 307.934186,168.151383 L298.970353,154.345109 C298.388197,153.447439 298.643694,152.247975 299.540506,151.665819 L299.978624,151.381171 C300.875436,150.799015 302.0749,151.054512 302.657056,151.951324 L311.620889,165.757598 C312.203045,166.655267 311.947548,167.854732 311.050736,168.436888 L311.050736,168.436888 Z" id="Stroke-50"></path>
                <path d="M316.608998,162.653651 L316.170881,162.937442 C315.274069,163.520455 314.074604,163.264958 313.492448,162.368146 L304.528616,148.561872 C303.946459,147.664203 304.201956,146.464738 305.098768,145.882582 L305.536886,145.597934 C306.433698,145.015778 307.633162,145.271275 308.215319,146.168087 L317.179151,159.974361 C317.761307,160.872031 317.50581,162.071495 316.608998,162.653651 L316.608998,162.653651 Z" id="Stroke-52"></path>
                <path d="M322.16726,156.870415 L321.729143,157.154205 C320.832331,157.737218 319.632866,157.481721 319.05071,156.584909 L310.086878,142.778635 C309.504722,141.880966 309.760219,140.681501 310.657031,140.099345 L311.095148,139.814697 C311.99196,139.232541 313.191425,139.488038 313.773581,140.38485 L322.737413,154.191125 C323.319569,155.088794 323.064072,156.288258 322.16726,156.870415 L322.16726,156.870415 Z" id="Stroke-54"></path>
                <path d="M327.725437,151.087178 L327.287319,151.370968 C326.390507,151.953982 325.191043,151.698485 324.608887,150.801673 L315.645054,136.995398 C315.062898,136.097729 315.318395,134.898265 316.215207,134.316108 L316.653324,134.031461 C317.550136,133.449305 318.749601,133.704802 319.331757,134.601614 L328.29559,148.407888 C328.877746,149.305557 328.622249,150.505022 327.725437,151.087178 L327.725437,151.087178 Z" id="Stroke-56"></path>
                <path d="M333.283699,145.303941 L332.845581,145.587731 C331.948769,146.170745 330.749305,145.915248 330.167149,145.018436 L321.203316,131.212162 C320.62116,130.314492 320.876657,129.115028 321.773469,128.532872 L322.211587,128.248224 C323.108399,127.666068 324.307863,127.921565 324.890019,128.818377 L333.853852,142.624651 C334.436008,143.52232 334.180511,144.721785 333.283699,145.303941 L333.283699,145.303941 Z" id="Stroke-58"></path>
                <path d="M338.841875,139.520704 L338.403758,139.804495 C337.506946,140.387508 336.307481,140.132011 335.725325,139.235199 L326.761493,125.428925 C326.179336,124.531256 326.434833,123.331791 327.331645,122.749635 L327.769763,122.464987 C328.666575,121.882831 329.866039,122.138328 330.448196,123.03514 L339.412028,136.841414 C339.994184,137.739084 339.738687,138.938548 338.841875,139.520704 L338.841875,139.520704 Z" id="Stroke-60"></path>
                <path d="M344.400137,133.737468 L343.96202,134.021258 C343.065208,134.604271 341.865743,134.348774 341.283587,133.451962 L332.319755,119.645688 C331.737599,118.748019 331.993096,117.548554 332.889908,116.966398 L333.328025,116.68175 C334.224837,116.099594 335.424302,116.355091 336.006458,117.251903 L344.97029,131.058178 C345.552446,131.955847 345.296949,133.155311 344.400137,133.737468 L344.400137,133.737468 Z" id="Stroke-62"></path>
                <path d="M349.9584,127.954231 L349.520282,128.238021 C348.62347,128.821035 347.424006,128.565538 346.841849,127.668726 L337.878017,113.862451 C337.295861,112.964782 337.551358,111.765318 338.44817,111.183161 L338.886287,110.898514 C339.783099,110.316358 340.982564,110.571855 341.56472,111.468667 L350.528552,125.274941 C351.110709,126.17261 350.855211,127.372075 349.9584,127.954231 L349.9584,127.954231 Z" id="Stroke-64"></path>
                <path d="M355.516576,122.170994 L355.078458,122.454784 C354.181646,123.037798 352.982182,122.782301 352.400026,121.885489 L343.436193,108.079215 C342.854037,107.181545 343.109534,105.982081 344.006346,105.399925 L344.444464,105.115277 C345.341276,104.533121 346.54074,104.788618 347.122896,105.68543 L356.086729,119.491704 C356.668885,120.389373 356.413388,121.588838 355.516576,122.170994 L355.516576,122.170994 Z" id="Stroke-66"></path>
                <path d="M361.074838,116.387757 L360.636721,116.671548 C359.739909,117.254561 358.540444,116.999064 357.958288,116.102252 L348.994455,102.295978 C348.412299,101.398309 348.667796,100.198844 349.564608,99.616688 L350.002726,99.3320402 C350.899538,98.7498841 352.099002,99.0053812 352.681158,99.9021931 L361.644991,113.708467 C362.227147,114.606137 361.97165,115.805601 361.074838,116.387757 L361.074838,116.387757 Z" id="Stroke-68"></path>
                <path d="M366.6331,110.604521 L366.194983,110.888311 C365.298171,111.471324 364.098706,111.215827 363.51655,110.319015 L354.552717,96.5127413 C353.970561,95.6150719 354.226058,94.4156074 355.12287,93.8334513 L355.560988,93.5488035 C356.4578,92.9666474 357.657264,93.2221445 358.23942,94.1189564 L367.203253,107.925231 C367.785409,108.8229 367.529912,110.022364 366.6331,110.604521 L366.6331,110.604521 Z" id="Stroke-70"></path>
                <path d="M372.191362,104.821284 L371.753245,105.105074 C370.856433,105.688088 369.656968,105.432591 369.074812,104.535779 L360.11098,90.7295045 C359.528823,89.8318352 359.78432,88.6323706 360.681132,88.0502145 L361.11925,87.7655667 C362.016062,87.1834106 363.215526,87.4389077 363.797683,88.3357197 L372.761515,102.141994 C373.343671,103.039663 373.088174,104.239128 372.191362,104.821284 L372.191362,104.821284 Z" id="Stroke-72"></path>
                <path d="M372.493072,104.507314 L372.759715,104.058908 C373.305861,103.138947 373.003209,101.950628 372.084105,101.404482 L357.933167,92.9953693 C357.013206,92.4492229 355.824887,92.7518755 355.278741,93.6709791 L355.012098,94.1202425 C354.465094,95.0393461 354.767746,96.2276648 355.687708,96.7746686 L369.838646,105.182924 C370.758607,105.72907 371.946925,105.427275 372.493072,104.507314 L372.493072,104.507314 Z" id="Stroke-74"></path>
                <path d="M366.934895,110.290551 L367.201538,109.842145 C367.747685,108.922184 367.445032,107.733865 366.525929,107.187719 L352.37499,98.7786061 C351.455029,98.2324596 350.266711,98.5351122 349.720564,99.4542159 L349.453921,99.9034792 C348.906918,100.822583 349.20957,102.010902 350.129531,102.557905 L364.280469,110.96616 C365.20043,111.512307 366.388749,111.210512 366.934895,110.290551 L366.934895,110.290551 Z" id="Stroke-76"></path>
                <path d="M361.376633,116.073787 L361.643276,115.625381 C362.189423,114.70542 361.88677,113.517102 360.967666,112.970955 L346.816728,104.561843 C345.896767,104.015696 344.708449,104.318349 344.162302,105.237453 L343.895659,105.686716 C343.348655,106.60582 343.651308,107.794138 344.571269,108.341142 L358.722207,116.749397 C359.642168,117.295544 360.830487,116.993748 361.376633,116.073787 L361.376633,116.073787 Z" id="Stroke-78"></path>
                <path d="M355.818457,121.856938 L356.0851,121.408532 C356.631246,120.488571 356.328594,119.300253 355.40949,118.754106 L341.258552,110.344994 C340.338591,109.798847 339.150272,110.1015 338.604126,111.020604 L338.337483,111.469867 C337.790479,112.388971 338.093132,113.577289 339.013093,114.124293 L353.164031,122.532548 C354.083992,123.078695 355.27231,122.776899 355.818457,121.856938 L355.818457,121.856938 Z" id="Stroke-80"></path>
                <path d="M350.260195,127.640175 L350.526838,127.191769 C351.072984,126.271808 350.770332,125.083489 349.851228,124.537343 L335.70029,116.128231 C334.780329,115.582084 333.59201,115.884737 333.045864,116.80384 L332.779221,117.253104 C332.232217,118.172207 332.534869,119.360526 333.45483,119.90753 L347.605769,128.315785 C348.52573,128.861931 349.714048,128.560136 350.260195,127.640175 L350.260195,127.640175 Z" id="Stroke-82"></path>
                <path d="M344.701933,133.423412 L344.968576,132.975006 C345.514722,132.055045 345.212069,130.866726 344.292966,130.32058 L330.142028,121.911467 C329.222067,121.365321 328.033748,121.667973 327.487602,122.587077 L327.220959,123.03634 C326.673955,123.955444 326.976607,125.143763 327.896568,125.690767 L342.047506,134.099022 C342.967467,134.645168 344.155786,134.343373 344.701933,133.423412 L344.701933,133.423412 Z" id="Stroke-84"></path>
                <path d="M339.143756,139.206649 L339.410399,138.758243 C339.956546,137.838282 339.653893,136.649963 338.734789,136.103816 L324.583851,127.694704 C323.66389,127.148558 322.475572,127.45121 321.929425,128.370314 L321.662782,128.819577 C321.115778,129.738681 321.418431,130.927 322.338392,131.474003 L336.48933,139.882258 C337.409291,140.428405 338.59761,140.12661 339.143756,139.206649 L339.143756,139.206649 Z" id="Stroke-86"></path>
                <path d="M333.585494,144.989885 L333.852137,144.541479 C334.398284,143.621518 334.095631,142.4332 333.176527,141.887053 L319.025589,133.477941 C318.105628,132.931794 316.91731,133.234447 316.371163,134.153551 L316.10452,134.602814 C315.557516,135.521918 315.860169,136.710236 316.78013,137.25724 L330.931068,145.665495 C331.851029,146.211642 333.039348,145.909846 333.585494,144.989885 L333.585494,144.989885 Z" id="Stroke-88"></path>
                <path d="M328.027232,150.773122 L328.293875,150.324716 C328.840021,149.404755 328.537369,148.216436 327.618265,147.67029 L313.467327,139.261178 C312.547366,138.715031 311.359047,139.017684 310.812901,139.936787 L310.546258,140.386051 C309.999254,141.305154 310.301907,142.493473 311.221868,143.040477 L325.372806,151.448732 C326.292767,151.994878 327.481086,151.693083 328.027232,150.773122 L328.027232,150.773122 Z" id="Stroke-90"></path>
                <path d="M322.46897,156.556359 L322.735613,156.107953 C323.281759,155.187992 322.979107,153.999673 322.060003,153.453527 L307.909065,145.044414 C306.989104,144.498268 305.800785,144.80092 305.254639,145.720024 L304.987996,146.169287 C304.440992,147.088391 304.743645,148.27671 305.663606,148.823714 L319.814544,157.231969 C320.734505,157.778115 321.922823,157.47632 322.46897,156.556359 L322.46897,156.556359 Z" id="Stroke-92"></path>
                <path d="M316.910793,162.339596 L317.177436,161.89119 C317.723583,160.971229 317.42093,159.78291 316.501827,159.236763 L302.350889,150.827651 C301.430928,150.281505 300.242609,150.584157 299.696462,151.503261 L299.429819,151.952524 C298.882816,152.871628 299.185468,154.059946 300.105429,154.60695 L314.256367,163.015205 C315.176328,163.561352 316.364647,163.259557 316.910793,162.339596 L316.910793,162.339596 Z" id="Stroke-94"></path>
                <path d="M311.352531,168.122832 L311.619174,167.674426 C312.165321,166.754465 311.862668,165.566147 310.943565,165.02 L296.792626,156.610888 C295.872665,156.064741 294.684347,156.367394 294.1382,157.286498 L293.871557,157.735761 C293.324554,158.654865 293.627206,159.843183 294.547167,160.390187 L308.698105,168.798442 C309.618066,169.344589 310.806385,169.042793 311.352531,168.122832 L311.352531,168.122832 Z" id="Stroke-96"></path>
                <path d="M305.794269,173.906069 L306.060912,173.457663 C306.607059,172.537702 306.304406,171.349383 305.385302,170.803237 L291.234364,162.394125 C290.314403,161.847978 289.126085,162.150631 288.579938,163.069734 L288.313295,163.518998 C287.766291,164.438101 288.068944,165.62642 288.988905,166.173424 L303.139843,174.581679 C304.059804,175.127825 305.248123,174.82603 305.794269,173.906069 L305.794269,173.906069 Z" id="Stroke-98"></path>
                <path d="M300.236093,179.689306 L300.502736,179.2409 C301.048882,178.320939 300.74623,177.13262 299.827126,176.586474 L285.676188,168.177361 C284.756227,167.631215 283.567908,167.933867 283.021762,168.852971 L282.755119,169.302234 C282.208115,170.221338 282.510768,171.409657 283.430729,171.956661 L297.581667,180.364916 C298.501628,180.911062 299.689946,180.609267 300.236093,179.689306 L300.236093,179.689306 Z" id="Stroke-100"></path>
                <path d="M294.975854,185.162517 L294.537736,185.446307 C293.640924,186.02932 292.44146,185.773823 291.859303,184.877011 L282.895471,171.070737 C282.313315,170.173068 282.568812,168.973603 283.465624,168.391447 L283.903741,168.106799 C284.800553,167.524643 286.000018,167.78014 286.582174,168.676952 L295.546006,182.483227 C296.128163,183.380896 295.872665,184.58036 294.975854,185.162517 L294.975854,185.162517 Z" id="Stroke-102"></path>
                <path d="M295.277649,184.848461 L295.544292,184.400055 C296.090438,183.480094 295.787786,182.291775 294.868682,181.745629 L280.717744,173.336516 C279.797783,172.79037 278.609464,173.093022 278.063318,174.012126 L277.796675,174.461389 C277.249671,175.380493 277.552324,176.568812 278.472285,177.115816 L292.623223,185.524071 C293.543184,186.070217 294.731502,185.768422 295.277649,184.848461 L295.277649,184.848461 Z" id="Stroke-104"></path>
                <path d="M377.014856,87.9505021 L278.009732,190.963844 L275.489913,188.541766 L374.495037,85.5284239 L377.014856,87.9505021 L377.014856,87.9505021 Z" id="Stroke-106"></path>
                <path d="M317.448795,196.836419 L317.010677,197.120209 C316.113865,197.703223 314.914401,197.447726 314.332245,196.550914 L305.368412,182.74464 C304.786256,181.84697 305.041753,180.647506 305.938565,180.06535 L306.376683,179.780702 C307.273495,179.198546 308.472959,179.454043 309.055115,180.350855 L318.018948,194.157129 C318.601104,195.054798 318.345607,196.254263 317.448795,196.836419 L317.448795,196.836419 Z" id="Stroke-108"></path>
                <path d="M323.007057,191.053182 L322.56894,191.336973 C321.672128,191.919986 320.472663,191.664489 319.890507,190.767677 L310.926674,176.961403 C310.344518,176.063733 310.600015,174.864269 311.496827,174.282113 L311.934945,173.997465 C312.831757,173.415309 314.031221,173.670806 314.613377,174.567618 L323.57721,188.373892 C324.159366,189.271561 323.903869,190.471026 323.007057,191.053182 L323.007057,191.053182 Z" id="Stroke-110"></path>
                <path d="M328.565319,185.269945 L328.127202,185.553736 C327.23039,186.136749 326.030925,185.881252 325.448769,184.98444 L316.484936,171.178166 C315.90278,170.280497 316.158277,169.081032 317.055089,168.498876 L317.493207,168.214228 C318.390019,167.632072 319.589483,167.887569 320.171639,168.784381 L329.135472,182.590655 C329.717628,183.488325 329.462131,184.687789 328.565319,185.269945 L328.565319,185.269945 Z" id="Stroke-112"></path>
                <path d="M334.123496,179.486709 L333.685378,179.770499 C332.788566,180.353513 331.589102,180.098015 331.006945,179.201203 L322.043113,165.394929 C321.460957,164.49726 321.716454,163.297795 322.613266,162.715639 L323.051383,162.430992 C323.948195,161.848835 325.14766,162.104333 325.729816,163.001144 L334.693648,176.807419 C335.275805,177.705088 335.020307,178.904553 334.123496,179.486709 L334.123496,179.486709 Z" id="Stroke-114"></path>
                <path d="M339.681758,173.703472 L339.24364,173.987262 C338.346828,174.570276 337.147364,174.314779 336.565208,173.417967 L327.601375,159.611693 C327.019219,158.714023 327.274716,157.514559 328.171528,156.932403 L328.609645,156.647755 C329.506457,156.065599 330.705922,156.321096 331.288078,157.217908 L340.251911,171.024182 C340.834067,171.921851 340.57857,173.121316 339.681758,173.703472 L339.681758,173.703472 Z" id="Stroke-116"></path>
                <path d="M345.239934,167.920235 L344.801817,168.204026 C343.905005,168.787039 342.70554,168.531542 342.123384,167.63473 L333.159551,153.828456 C332.577395,152.930787 332.832892,151.731322 333.729704,151.149166 L334.167822,150.864518 C335.064634,150.282362 336.264098,150.537859 336.846254,151.434671 L345.810087,165.240945 C346.392243,166.138614 346.136746,167.338079 345.239934,167.920235 L345.239934,167.920235 Z" id="Stroke-118"></path>
                <path d="M350.798196,162.137084 L350.360079,162.420875 C349.463267,163.003888 348.263802,162.748391 347.681646,161.851579 L338.717813,148.045305 C338.135657,147.147636 338.391154,145.948171 339.287966,145.366015 L339.726084,145.081367 C340.622896,144.499211 341.82236,144.754708 342.404516,145.65152 L351.368349,159.457794 C351.950505,160.355463 351.695008,161.554928 350.798196,162.137084 L350.798196,162.137084 Z" id="Stroke-120"></path>
                <path d="M356.356458,156.353847 L355.918341,156.637638 C355.021529,157.220651 353.822064,156.965154 353.239908,156.068342 L344.276076,142.262068 C343.693919,141.364399 343.949417,140.164934 344.846228,139.582778 L345.284346,139.29813 C346.181158,138.715974 347.380622,138.971471 347.962779,139.868283 L356.926611,153.674557 C357.508767,154.572227 357.25327,155.771691 356.356458,156.353847 L356.356458,156.353847 Z" id="Stroke-122"></path>
                <path d="M361.914635,150.570611 L361.476517,150.854401 C360.579705,151.437415 359.380241,151.181917 358.798085,150.285106 L349.834252,136.478831 C349.252096,135.581162 349.507593,134.381697 350.404405,133.799541 L350.842522,133.514894 C351.739334,132.932737 352.938799,133.188235 353.520955,134.085046 L362.484788,147.891321 C363.066944,148.78899 362.811447,149.988455 361.914635,150.570611 L361.914635,150.570611 Z" id="Stroke-124"></path>
                <path d="M367.472897,144.787374 L367.034779,145.071164 C366.137967,145.654178 364.938503,145.398681 364.356347,144.501869 L355.392514,130.695595 C354.810358,129.797925 355.065855,128.598461 355.962667,128.016305 L356.400784,127.731657 C357.297596,127.149501 358.497061,127.404998 359.079217,128.30181 L368.04305,142.108084 C368.625206,143.005753 368.369709,144.205218 367.472897,144.787374 L367.472897,144.787374 Z" id="Stroke-126"></path>
                <path d="M373.031159,139.004137 L372.593041,139.287928 C371.696229,139.870941 370.496765,139.615444 369.914609,138.718632 L360.950776,124.912358 C360.36862,124.014689 360.624117,122.815224 361.520929,122.233068 L361.959047,121.94842 C362.855859,121.366264 364.055323,121.621761 364.637479,122.518573 L373.601312,136.324847 C374.183468,137.222517 373.927971,138.421981 373.031159,139.004137 L373.031159,139.004137 Z" id="Stroke-128"></path>
                <path d="M378.589421,133.2209 L378.151304,133.504691 C377.254492,134.087704 376.055027,133.832207 375.472871,132.935395 L366.509038,119.129121 C365.926882,118.231452 366.182379,117.031987 367.079191,116.449831 L367.517309,116.165183 C368.414121,115.583027 369.613585,115.838524 370.195741,116.735336 L379.159574,130.54161 C379.74173,131.43928 379.486233,132.638744 378.589421,133.2209 L378.589421,133.2209 Z" id="Stroke-130"></path>
                <path d="M384.147597,127.437664 L383.70948,127.721454 C382.812668,128.304468 381.613203,128.048971 381.031047,127.152159 L372.067215,113.345884 C371.485059,112.448215 371.740556,111.248751 372.637368,110.666594 L373.075485,110.381947 C373.972297,109.79979 375.171762,110.055288 375.753918,110.9521 L384.71775,124.758374 C385.299906,125.656043 385.044409,126.855508 384.147597,127.437664 L384.147597,127.437664 Z" id="Stroke-132"></path>
                <path d="M389.70586,121.654427 L389.267742,121.938217 C388.37093,122.521231 387.171466,122.265734 386.589309,121.368922 L377.625477,107.562648 C377.043321,106.664978 377.298818,105.465514 378.19563,104.883358 L378.633747,104.59871 C379.530559,104.016554 380.730024,104.272051 381.31218,105.168863 L390.276012,118.975137 C390.858169,119.872806 390.602671,121.072271 389.70586,121.654427 L389.70586,121.654427 Z" id="Stroke-134"></path>
                <path d="M390.007655,121.340371 L390.274298,120.891965 C390.820444,119.972004 390.517792,118.783686 389.598688,118.237539 L375.44775,109.828427 C374.527789,109.28228 373.33947,109.584933 372.793324,110.504036 L372.526681,110.9533 C371.979677,111.872403 372.28233,113.060722 373.202291,113.607726 L387.353229,122.015981 C388.27319,122.562128 389.461508,122.260332 390.007655,121.340371 L390.007655,121.340371 Z" id="Stroke-136"></path>
                <path d="M384.449393,127.123608 L384.716036,126.675202 C385.262182,125.755241 384.959529,124.566922 384.040426,124.020776 L369.889488,115.611663 C368.969527,115.065517 367.781208,115.36817 367.235062,116.287273 L366.968419,116.736537 C366.421415,117.65564 366.724067,118.843959 367.644028,119.390963 L381.794966,127.799218 C382.714927,128.345364 383.903246,128.043569 384.449393,127.123608 L384.449393,127.123608 Z" id="Stroke-138"></path>
                <path d="M378.891131,132.906845 L379.157773,132.458439 C379.70392,131.538478 379.401267,130.350159 378.482164,129.804013 L364.331226,121.3949 C363.411265,120.848754 362.222946,121.151406 361.676799,122.07051 L361.410157,122.519773 C360.863153,123.438877 361.165805,124.627196 362.085766,125.1742 L376.236704,133.582455 C377.156665,134.128601 378.344984,133.826806 378.891131,132.906845 L378.891131,132.906845 Z" id="Stroke-140"></path>
                <path d="M373.332954,138.690082 L373.599597,138.241676 C374.145744,137.321715 373.843091,136.133396 372.923987,135.587249 L358.773049,127.178137 C357.853088,126.63199 356.66477,126.934643 356.118623,127.853747 L355.85198,128.30301 C355.304976,129.222114 355.607629,130.410432 356.52759,130.957436 L370.678528,139.365691 C371.598489,139.911838 372.786808,139.610043 373.332954,138.690082 L373.332954,138.690082 Z" id="Stroke-142"></path>
                <path d="M367.774692,144.473318 L368.041335,144.024912 C368.587481,143.104951 368.284829,141.916633 367.365725,141.370486 L353.214787,132.961374 C352.294826,132.415227 351.106507,132.71788 350.560361,133.636983 L350.293718,134.086247 C349.746714,135.00535 350.049367,136.193669 350.969328,136.740673 L365.120266,145.148928 C366.040227,145.695075 367.228546,145.393279 367.774692,144.473318 L367.774692,144.473318 Z" id="Stroke-144"></path>
                <path d="M362.216516,150.256555 L362.483159,149.808149 C363.029305,148.888188 362.726652,147.699869 361.807549,147.153723 L347.656611,138.74461 C346.73665,138.198464 345.548331,138.501117 345.002185,139.42022 L344.735542,139.869484 C344.188538,140.788587 344.49119,141.976906 345.411151,142.52391 L359.562089,150.932165 C360.48205,151.478311 361.670369,151.176516 362.216516,150.256555 L362.216516,150.256555 Z" id="Stroke-146"></path>
                <path d="M356.658254,156.039792 L356.924896,155.591386 C357.471043,154.671425 357.16839,153.483106 356.249287,152.93696 L342.098349,144.527847 C341.178388,143.981701 339.990069,144.284353 339.443922,145.203457 L339.17728,145.65272 C338.630276,146.571824 338.932928,147.760143 339.852889,148.307146 L354.003827,156.715402 C354.923788,157.261548 356.112107,156.959753 356.658254,156.039792 L356.658254,156.039792 Z" id="Stroke-148"></path>
                <path d="M351.099991,161.823028 L351.366634,161.374623 C351.912781,160.454662 351.610128,159.266343 350.691025,158.720196 L336.540087,150.311084 C335.620126,149.764937 334.431807,150.06759 333.88566,150.986694 L333.619017,151.435957 C333.072014,152.355061 333.374666,153.543379 334.294627,154.090383 L348.445565,162.498638 C349.365526,163.044785 350.553845,162.74299 351.099991,161.823028 L351.099991,161.823028 Z" id="Stroke-150"></path>
                <path d="M345.541815,167.606265 L345.808458,167.157859 C346.354604,166.237898 346.051952,165.04958 345.132848,164.503433 L330.98191,156.094321 C330.061949,155.548174 328.87363,155.850827 328.327484,156.76993 L328.060841,157.219194 C327.513837,158.138297 327.81649,159.326616 328.736451,159.87362 L342.887389,168.281875 C343.80735,168.828021 344.995669,168.526226 345.541815,167.606265 L345.541815,167.606265 Z" id="Stroke-152"></path>
                <path d="M339.983553,173.389502 L340.250196,172.941096 C340.796342,172.021135 340.49369,170.832816 339.574586,170.28667 L325.423648,161.877557 C324.503687,161.331411 323.315368,161.634064 322.769222,162.553167 L322.502579,163.002431 C321.955575,163.921534 322.258228,165.109853 323.178189,165.656857 L337.329127,174.065112 C338.249088,174.611258 339.437406,174.309463 339.983553,173.389502 L339.983553,173.389502 Z" id="Stroke-154"></path>
                <path d="M334.425291,179.172739 L334.691934,178.724333 C335.23808,177.804372 334.935428,176.616053 334.016324,176.069907 L319.865386,167.660794 C318.945425,167.114648 317.757106,167.4173 317.21096,168.336404 L316.944317,168.785667 C316.397313,169.704771 316.699966,170.89309 317.619927,171.440093 L331.770865,179.848348 C332.690826,180.394495 333.879144,180.0927 334.425291,179.172739 L334.425291,179.172739 Z" id="Stroke-156"></path>
                <path d="M328.867029,184.955975 L329.133672,184.507569 C329.679818,183.587608 329.377165,182.39929 328.458062,181.853143 L314.307124,173.444031 C313.387163,172.897884 312.198844,173.200537 311.652698,174.119641 L311.386055,174.568904 C310.839051,175.488008 311.141703,176.676326 312.061664,177.22333 L326.212602,185.631585 C327.132563,186.177732 328.320882,185.875936 328.867029,184.955975 L328.867029,184.955975 Z" id="Stroke-158"></path>
                <path d="M323.308852,190.739212 L323.575495,190.290806 C324.121642,189.370845 323.818989,188.182527 322.899885,187.63638 L308.748947,179.227268 C307.828986,178.681121 306.640668,178.983774 306.094521,179.902877 L305.827878,180.352141 C305.280874,181.271244 305.583527,182.459563 306.503488,183.006567 L320.654426,191.414822 C321.574387,191.960968 322.762706,191.659173 323.308852,190.739212 L323.308852,190.739212 Z" id="Stroke-160"></path>
                <path d="M317.75059,196.522449 L318.017233,196.074043 C318.56338,195.154082 318.260727,193.965763 317.341623,193.419617 L303.190685,185.010504 C302.270724,184.464358 301.082406,184.76701 300.536259,185.686114 L300.269616,186.135377 C299.722612,187.054481 300.025265,188.2428 300.945226,188.789804 L315.096164,197.198059 C316.016125,197.744205 317.204444,197.44241 317.75059,196.522449 L317.75059,196.522449 Z" id="Stroke-162"></path>
                <path d="M312.490351,201.99566 L312.052233,202.27945 C311.155421,202.862464 309.955957,202.606966 309.373801,201.710155 L300.409968,187.90388 C299.827812,187.006211 300.083309,185.806746 300.980121,185.22459 L301.418238,184.939943 C302.31505,184.357786 303.514515,184.613284 304.096671,185.510096 L313.060504,199.31637 C313.64266,200.214039 313.387163,201.413504 312.490351,201.99566 L312.490351,201.99566 Z" id="Stroke-164"></path>
                <path d="M312.792146,201.681604 L313.058789,201.233198 C313.604935,200.313237 313.302283,199.124918 312.383179,198.578772 L298.232241,190.169659 C297.31228,189.623513 296.123961,189.926166 295.577815,190.845269 L295.311172,191.294533 C294.764168,192.213636 295.066821,193.401955 295.986782,193.948959 L310.13772,202.357214 C311.057681,202.90336 312.246,202.601565 312.792146,201.681604 L312.792146,201.681604 Z" id="Stroke-166"></path>
                <path d="M394.775934,104.527119 L295.523886,207.796816 L293.004068,205.374737 L392.256115,102.105041 L394.775934,104.527119 L394.775934,104.527119 Z" id="Stroke-168"></path>
                <path d="M334.963378,213.669562 L334.52526,213.953352 C333.628448,214.536366 332.428984,214.280869 331.846828,213.384057 L322.882995,199.577783 C322.300839,198.680113 322.556336,197.480649 323.453148,196.898493 L323.891266,196.613845 C324.788078,196.031689 325.987542,196.287186 326.569698,197.183998 L335.533531,210.990272 C336.115687,211.887941 335.86019,213.087406 334.963378,213.669562 L334.963378,213.669562 Z" id="Stroke-170"></path>
                <path d="M340.521554,207.886325 L340.083437,208.170116 C339.186625,208.753129 337.98716,208.497632 337.405004,207.60082 L328.441172,193.794546 C327.859015,192.896877 328.114513,191.697412 329.011324,191.115256 L329.449442,190.830608 C330.346254,190.248452 331.545718,190.503949 332.127875,191.400761 L341.091707,205.207035 C341.673863,206.104705 341.418366,207.304169 340.521554,207.886325 L340.521554,207.886325 Z" id="Stroke-172"></path>
                <path d="M346.079816,202.103088 L345.641699,202.386879 C344.744887,202.969892 343.545422,202.714395 342.963266,201.817583 L333.999434,188.011309 C333.417278,187.11364 333.672775,185.914175 334.569587,185.332019 L335.007704,185.047371 C335.904516,184.465215 337.103981,184.720712 337.686137,185.617524 L346.649969,199.423799 C347.232125,200.321468 346.976628,201.520932 346.079816,202.103088 L346.079816,202.103088 Z" id="Stroke-174"></path>
                <path d="M351.637993,196.319852 L351.199875,196.603642 C350.303063,197.186656 349.103599,196.931159 348.521443,196.034347 L339.55761,182.228072 C338.975454,181.330403 339.230951,180.130939 340.127763,179.548782 L340.56588,179.264135 C341.462692,178.681979 342.662157,178.937476 343.244313,179.834288 L352.208146,193.640562 C352.790302,194.538231 352.534805,195.737696 351.637993,196.319852 L351.637993,196.319852 Z" id="Stroke-176"></path>
                <path d="M357.196255,190.536615 L356.758137,190.820405 C355.861325,191.403419 354.661861,191.147922 354.079705,190.25111 L345.115872,176.444836 C344.533716,175.547166 344.789213,174.347702 345.686025,173.765546 L346.124143,173.480898 C347.020955,172.898742 348.220419,173.154239 348.802575,174.051051 L357.766408,187.857325 C358.348564,188.754994 358.093067,189.954459 357.196255,190.536615 L357.196255,190.536615 Z" id="Stroke-178"></path>
                <path d="M362.754517,184.753378 L362.3164,185.037169 C361.419588,185.620182 360.220123,185.364685 359.637967,184.467873 L350.674134,170.661599 C350.091978,169.76393 350.347475,168.564465 351.244287,167.982309 L351.682405,167.697661 C352.579217,167.115505 353.778681,167.371002 354.360837,168.267814 L363.32467,182.074088 C363.906826,182.971758 363.651329,184.171222 362.754517,184.753378 L362.754517,184.753378 Z" id="Stroke-180"></path>
                <path d="M368.312693,178.970142 L367.874576,179.253932 C366.977764,179.836945 365.778299,179.581448 365.196143,178.684636 L356.232311,164.878362 C355.650155,163.980693 355.905652,162.781228 356.802464,162.199072 L357.240581,161.914424 C358.137393,161.332268 359.336858,161.587765 359.919014,162.484577 L368.882846,176.290852 C369.465002,177.188521 369.209505,178.387985 368.312693,178.970142 L368.312693,178.970142 Z" id="Stroke-182"></path>
                <path d="M373.870956,173.186905 L373.432838,173.470695 C372.536026,174.053709 371.336562,173.798212 370.754405,172.9014 L361.790573,159.095125 C361.208417,158.197456 361.463914,156.997992 362.360726,156.415835 L362.798843,156.131188 C363.695655,155.549032 364.89512,155.804529 365.477276,156.701341 L374.441108,170.507615 C375.023265,171.405284 374.767768,172.604749 373.870956,173.186905 L373.870956,173.186905 Z" id="Stroke-184"></path>
                <path d="M379.429218,167.403668 L378.9911,167.687458 C378.094288,168.270472 376.894824,168.014975 376.312668,167.118163 L367.348835,153.311889 C366.766679,152.414219 367.022176,151.214755 367.918988,150.632599 L368.357105,150.347951 C369.253917,149.765795 370.453382,150.021292 371.035538,150.918104 L379.999371,164.724378 C380.581527,165.622047 380.32603,166.821512 379.429218,167.403668 L379.429218,167.403668 Z" id="Stroke-186"></path>
                <path d="M384.98748,161.620431 L384.549362,161.904222 C383.65255,162.487235 382.453086,162.231738 381.87093,161.334926 L372.907097,147.528652 C372.324941,146.630983 372.580438,145.431518 373.47725,144.849362 L373.915367,144.564714 C374.812179,143.982558 376.011644,144.238055 376.5938,145.134867 L385.557633,158.941141 C386.139789,159.838811 385.884292,161.038275 384.98748,161.620431 L384.98748,161.620431 Z" id="Stroke-188"></path>
                <path d="M390.545656,155.837195 L390.107539,156.120985 C389.210727,156.703998 388.011262,156.448501 387.429106,155.551689 L378.465273,141.745415 C377.883117,140.847746 378.138614,139.648281 379.035426,139.066125 L379.473544,138.781477 C380.370356,138.199321 381.56982,138.454818 382.151976,139.35163 L391.115809,153.157905 C391.697965,154.055574 391.442468,155.255038 390.545656,155.837195 L390.545656,155.837195 Z" id="Stroke-190"></path>
                <path d="M396.103918,150.053958 L395.665801,150.337748 C394.768989,150.920762 393.569524,150.665265 392.987368,149.768453 L384.023536,135.962178 C383.441379,135.064509 383.696877,133.865045 384.593688,133.282888 L385.031806,132.998241 C385.928618,132.416085 387.128082,132.671582 387.710239,133.568394 L396.674071,147.374668 C397.256227,148.272337 397.00073,149.471802 396.103918,150.053958 L396.103918,150.053958 Z" id="Stroke-192"></path>
                <path d="M401.66218,144.270721 L401.224063,144.554511 C400.327251,145.137525 399.127786,144.882028 398.54563,143.985216 L389.581798,130.178942 C388.999642,129.281272 389.255139,128.081808 390.151951,127.499652 L390.590068,127.215004 C391.48688,126.632848 392.686345,126.888345 393.268501,127.785157 L402.232333,141.591431 C402.814489,142.4891 402.558992,143.688565 401.66218,144.270721 L401.66218,144.270721 Z" id="Stroke-194"></path>
                <path d="M407.220357,138.487484 L406.782239,138.771275 C405.885427,139.354288 404.685963,139.098791 404.103807,138.201979 L395.139974,124.395705 C394.557818,123.498036 394.813315,122.298571 395.710127,121.716415 L396.148244,121.431767 C397.045056,120.849611 398.244521,121.105108 398.826677,122.00192 L407.79051,135.808194 C408.372666,136.705864 408.117169,137.905328 407.220357,138.487484 L407.220357,138.487484 Z" id="Stroke-196"></path>
                <path d="M407.522152,138.173514 L407.788795,137.725108 C408.334941,136.805147 408.032289,135.616829 407.113185,135.070682 L392.962247,126.66157 C392.042286,126.115423 390.853967,126.418076 390.307821,127.33718 L390.041178,127.786443 C389.494174,128.705547 389.796827,129.893865 390.716788,130.440869 L404.867726,138.849124 C405.787687,139.395271 406.976006,139.093475 407.522152,138.173514 L407.522152,138.173514 Z" id="Stroke-198"></path>
                <path d="M401.963976,143.956751 L402.230619,143.508345 C402.776765,142.588384 402.474112,141.400065 401.555009,140.853919 L387.404071,132.444807 C386.48411,131.89866 385.295791,132.201313 384.749645,133.120416 L384.483002,133.56968 C383.935998,134.488783 384.23865,135.677102 385.158611,136.224106 L399.309549,144.632361 C400.22951,145.178507 401.417829,144.876712 401.963976,143.956751 L401.963976,143.956751 Z" id="Stroke-200"></path>
                <path d="M396.405714,149.739988 L396.672356,149.291582 C397.218503,148.371621 396.91585,147.183302 395.996747,146.637156 L381.845809,138.228043 C380.925848,137.681897 379.737529,137.984549 379.191382,138.903653 L378.92474,139.352916 C378.377736,140.27202 378.680388,141.460339 379.600349,142.007343 L393.751287,150.415598 C394.671248,150.961744 395.859567,150.659949 396.405714,149.739988 L396.405714,149.739988 Z" id="Stroke-202"></path>
                <path d="M390.847451,155.523225 L391.114094,155.074819 C391.660241,154.154858 391.357588,152.966539 390.438485,152.420392 L376.287547,144.01128 C375.367586,143.465134 374.179267,143.767786 373.63312,144.68689 L373.366477,145.136153 C372.819474,146.055257 373.122126,147.243576 374.042087,147.790579 L388.193025,156.198834 C389.112986,156.744981 390.301305,156.443186 390.847451,155.523225 L390.847451,155.523225 Z" id="Stroke-204"></path>
                <path d="M385.289189,161.306461 L385.555832,160.858055 C386.101979,159.938094 385.799326,158.749776 384.880222,158.203629 L370.729284,149.794517 C369.809323,149.24837 368.621005,149.551023 368.074858,150.470127 L367.808215,150.91939 C367.261211,151.838494 367.563864,153.026812 368.483825,153.573816 L382.634763,161.982071 C383.554724,162.528218 384.743043,162.226422 385.289189,161.306461 L385.289189,161.306461 Z" id="Stroke-206"></path>
                <path d="M379.731013,167.089612 L379.997656,166.641206 C380.543802,165.721245 380.24115,164.532927 379.322046,163.98678 L365.171108,155.577668 C364.251147,155.031521 363.062828,155.334174 362.516682,156.253278 L362.250039,156.702541 C361.703035,157.621645 362.005688,158.809963 362.925649,159.356967 L377.076587,167.765222 C377.996548,168.311369 379.184866,168.009573 379.731013,167.089612 L379.731013,167.089612 Z" id="Stroke-208"></path>
                <path d="M374.172751,172.872849 L374.439394,172.424443 C374.98554,171.504482 374.682888,170.316163 373.763784,169.770017 L359.612846,161.360905 C358.692885,160.814758 357.504566,161.117411 356.95842,162.036514 L356.691777,162.485778 C356.144773,163.404881 356.447426,164.5932 357.367387,165.140204 L371.518325,173.548459 C372.438286,174.094605 373.626604,173.79281 374.172751,172.872849 L374.172751,172.872849 Z" id="Stroke-210"></path>
                <path d="M368.614574,178.656086 L368.881217,178.20768 C369.427364,177.287719 369.124711,176.0994 368.205608,175.553254 L354.05467,167.144141 C353.134709,166.597995 351.94639,166.900647 351.400243,167.819751 L351.1336,168.269014 C350.586597,169.188118 350.889249,170.376437 351.80921,170.923441 L365.960148,179.331696 C366.880109,179.877842 368.068428,179.576047 368.614574,178.656086 L368.614574,178.656086 Z" id="Stroke-212"></path>
                <path d="M363.056312,184.439323 L363.322955,183.990917 C363.869102,183.070956 363.566449,181.882637 362.647345,181.33649 L348.496407,172.927378 C347.576446,172.381232 346.388128,172.683884 345.841981,173.602988 L345.575338,174.052251 C345.028334,174.971355 345.330987,176.159673 346.250948,176.706677 L360.401886,185.114932 C361.321847,185.661079 362.510166,185.359284 363.056312,184.439323 L363.056312,184.439323 Z" id="Stroke-214"></path>
                <path d="M357.49805,190.222559 L357.764693,189.774153 C358.31084,188.854192 358.008187,187.665874 357.089083,187.119727 L342.938145,178.710615 C342.018184,178.164468 340.829866,178.467121 340.283719,179.386225 L340.017076,179.835488 C339.470072,180.754592 339.772725,181.94291 340.692686,182.489914 L354.843624,190.898169 C355.763585,191.444316 356.951904,191.14252 357.49805,190.222559 L357.49805,190.222559 Z" id="Stroke-216"></path>
                <path d="M351.939874,196.005796 L352.206517,195.55739 C352.752663,194.637429 352.450011,193.44911 351.530907,192.902964 L337.379969,184.493852 C336.460008,183.947705 335.271689,184.250358 334.725543,185.169461 L334.4589,185.618725 C333.911896,186.537828 334.214549,187.726147 335.13451,188.273151 L349.285448,196.681406 C350.205409,197.227552 351.393727,196.925757 351.939874,196.005796 L351.939874,196.005796 Z" id="Stroke-218"></path>
                <path d="M346.381612,201.789033 L346.648255,201.340627 C347.194401,200.420666 346.891748,199.232347 345.972645,198.686201 L331.821707,190.277088 C330.901746,189.730942 329.713427,190.033594 329.167281,190.952698 L328.900638,191.401961 C328.353634,192.321065 328.656286,193.509384 329.576247,194.056388 L343.727185,202.464643 C344.647146,203.010789 345.835465,202.708994 346.381612,201.789033 L346.381612,201.789033 Z" id="Stroke-220"></path>
                <path d="M340.82335,207.57227 L341.089992,207.123864 C341.636139,206.203903 341.333486,205.015584 340.414383,204.469437 L326.263445,196.060325 C325.343484,195.514179 324.155165,195.816831 323.609018,196.735935 L323.342376,197.185198 C322.795372,198.104302 323.098024,199.29262 324.017985,199.839624 L338.168923,208.247879 C339.088884,208.794026 340.277203,208.492231 340.82335,207.57227 L340.82335,207.57227 Z" id="Stroke-222"></path>
                <path d="M335.265173,213.355506 L335.531816,212.9071 C336.077963,211.987139 335.77531,210.798821 334.856206,210.252674 L320.705268,201.843562 C319.785307,201.297415 318.596989,201.600068 318.050842,202.519172 L317.784199,202.968435 C317.237195,203.887539 317.539848,205.075857 318.459809,205.622861 L332.610747,214.031116 C333.530708,214.577263 334.719027,214.275467 335.265173,213.355506 L335.265173,213.355506 Z" id="Stroke-224"></path>
                <path d="M330.004848,218.828717 L329.566731,219.112507 C328.669919,219.695521 327.470454,219.440024 326.888298,218.543212 L317.924465,204.736938 C317.342309,203.839268 317.597806,202.639804 318.494618,202.057648 L318.932736,201.773 C319.829548,201.190844 321.029012,201.446341 321.611168,202.343153 L330.575001,216.149427 C331.157157,217.047096 330.90166,218.246561 330.004848,218.828717 L330.004848,218.828717 Z" id="Stroke-226"></path>
                <path d="M330.306729,218.514661 L330.573372,218.066255 C331.119518,217.146294 330.816866,215.957976 329.897762,215.411829 L315.746824,207.002717 C314.826863,206.45657 313.638544,206.759223 313.092398,207.678327 L312.825755,208.12759 C312.278751,209.046694 312.581404,210.235012 313.501365,210.782016 L327.652303,219.190271 C328.572264,219.736418 329.760583,219.434622 330.306729,218.514661 L330.306729,218.514661 Z" id="Stroke-228"></path>
                <path d="M412.271912,121.379553 L313.038726,224.62953 L310.518908,222.208309 L409.752093,118.957475 L412.271912,121.379553 L412.271912,121.379553 Z" id="Stroke-230"></path>
                <path d="M352.477875,230.502705 L352.039758,230.786495 C351.142946,231.369509 349.943481,231.114012 349.361325,230.2172 L340.397492,216.410926 C339.815336,215.513256 340.070833,214.313792 340.967645,213.731636 L341.405763,213.446988 C342.302575,212.864832 343.502039,213.120329 344.084196,214.017141 L353.048028,227.823415 C353.630184,228.721084 353.374687,229.920549 352.477875,230.502705 L352.477875,230.502705 Z" id="Stroke-232"></path>
                <path d="M358.036052,224.719468 L357.597934,225.003259 C356.701122,225.586272 355.501658,225.330775 354.919501,224.433963 L345.955669,210.627689 C345.373513,209.73002 345.62901,208.530555 346.525822,207.948399 L346.963939,207.663751 C347.860751,207.081595 349.060216,207.337092 349.642372,208.233904 L358.606205,222.040178 C359.188361,222.937848 358.932864,224.137312 358.036052,224.719468 L358.036052,224.719468 Z" id="Stroke-234"></path>
                <path d="M363.594314,218.936232 L363.156196,219.220022 C362.259384,219.803036 361.05992,219.547538 360.477764,218.650726 L351.513931,204.844452 C350.931775,203.946783 351.187272,202.747318 352.084084,202.165162 L352.522201,201.880515 C353.419013,201.298358 354.618478,201.553855 355.200634,202.450667 L364.164467,216.256942 C364.746623,217.154611 364.491126,218.354075 363.594314,218.936232 L363.594314,218.936232 Z" id="Stroke-236"></path>
                <path d="M369.152576,213.152995 L368.714458,213.436785 C367.817646,214.019799 366.618182,213.764302 366.036026,212.86749 L357.072193,199.061216 C356.490037,198.163546 356.745534,196.964082 357.642346,196.381926 L358.080464,196.097278 C358.977275,195.515122 360.17674,195.770619 360.758896,196.667431 L369.722729,210.473705 C370.304885,211.371374 370.049388,212.570839 369.152576,213.152995 L369.152576,213.152995 Z" id="Stroke-238"></path>
                <path d="M374.710752,207.369758 L374.272635,207.653549 C373.375823,208.236562 372.176358,207.981065 371.594202,207.084253 L362.630369,193.277979 C362.048213,192.380309 362.30371,191.180845 363.200522,190.598689 L363.63864,190.314041 C364.535452,189.731885 365.734916,189.987382 366.317073,190.884194 L375.280905,204.690468 C375.863061,205.588137 375.607564,206.787602 374.710752,207.369758 L374.710752,207.369758 Z" id="Stroke-240"></path>
                <path d="M380.269014,201.586521 L379.830897,201.870312 C378.934085,202.453325 377.73462,202.197828 377.152464,201.301016 L368.188632,187.494742 C367.606475,186.597073 367.861973,185.397608 368.758785,184.815452 L369.196902,184.530804 C370.093714,183.948648 371.293179,184.204145 371.875335,185.100957 L380.839167,198.907231 C381.421323,199.804901 381.165826,201.004365 380.269014,201.586521 L380.269014,201.586521 Z" id="Stroke-242"></path>
                <path d="M385.827276,195.803285 L385.389159,196.087075 C384.492347,196.670089 383.292882,196.414591 382.710726,195.51778 L373.746894,181.711505 C373.164738,180.813836 373.420235,179.614371 374.317047,179.032215 L374.755164,178.747568 C375.651976,178.165411 376.851441,178.420909 377.433597,179.31772 L386.397429,193.123995 C386.979586,194.021664 386.724088,195.221129 385.827276,195.803285 L385.827276,195.803285 Z" id="Stroke-244"></path>
                <path d="M391.385539,190.020048 L390.947421,190.303838 C390.050609,190.886852 388.851145,190.631355 388.268988,189.734543 L379.305156,175.928269 C378.723,175.030599 378.978497,173.831135 379.875309,173.248979 L380.313426,172.964331 C381.210238,172.382175 382.409703,172.637672 382.991859,173.534484 L391.955691,187.340758 C392.537848,188.238427 392.282351,189.437892 391.385539,190.020048 L391.385539,190.020048 Z" id="Stroke-246"></path>
                <path d="M396.943715,184.236811 L396.505597,184.520602 C395.608786,185.103615 394.409321,184.848118 393.827165,183.951306 L384.863332,170.145032 C384.281176,169.247363 384.536673,168.047898 385.433485,167.465742 L385.871603,167.181094 C386.768415,166.598938 387.967879,166.854435 388.550035,167.751247 L397.513868,181.557521 C398.096024,182.45519 397.840527,183.654655 396.943715,184.236811 L396.943715,184.236811 Z" id="Stroke-248"></path>
                <path d="M402.501977,178.453574 L402.06386,178.737365 C401.167048,179.320378 399.967583,179.064881 399.385427,178.168069 L390.421594,164.361795 C389.839438,163.464126 390.094935,162.264661 390.991747,161.682505 L391.429865,161.397857 C392.326677,160.815701 393.526141,161.071198 394.108297,161.96801 L403.07213,175.774284 C403.654286,176.671954 403.398789,177.871418 402.501977,178.453574 L402.501977,178.453574 Z" id="Stroke-250"></path>
                <path d="M408.060239,172.670338 L407.622122,172.954128 C406.72531,173.537142 405.525845,173.281644 404.943689,172.384833 L395.979856,158.578558 C395.3977,157.680889 395.653197,156.481424 396.550009,155.899268 L396.988127,155.614621 C397.884939,155.032464 399.084403,155.287962 399.666559,156.184773 L408.630392,169.991048 C409.212548,170.888717 408.957051,172.088182 408.060239,172.670338 L408.060239,172.670338 Z" id="Stroke-252"></path>
                <path d="M413.618416,166.887101 L413.180298,167.170891 C412.283486,167.753905 411.084022,167.498408 410.501865,166.601596 L401.538033,152.795322 C400.955877,151.897652 401.211374,150.698188 402.108186,150.116032 L402.546303,149.831384 C403.443115,149.249228 404.64258,149.504725 405.224736,150.401537 L414.188568,164.207811 C414.770725,165.10548 414.515228,166.304945 413.618416,166.887101 L413.618416,166.887101 Z" id="Stroke-254"></path>
                <path d="M419.176678,161.103864 L418.73856,161.387655 C417.841748,161.970668 416.642284,161.715171 416.060128,160.818359 L407.096295,147.012085 C406.514139,146.114416 406.769636,144.914951 407.666448,144.332795 L408.104565,144.048147 C409.001377,143.465991 410.200842,143.721488 410.782998,144.6183 L419.746831,158.424574 C420.328987,159.322244 420.07349,160.521708 419.176678,161.103864 L419.176678,161.103864 Z" id="Stroke-256"></path>
                <path d="M424.734854,155.320627 L424.296737,155.604418 C423.399925,156.187431 422.20046,155.931934 421.618304,155.035122 L412.654471,141.228848 C412.072315,140.331179 412.327812,139.131714 413.224624,138.549558 L413.662742,138.26491 C414.559554,137.682754 415.759018,137.938251 416.341174,138.835063 L425.305007,152.641337 C425.887163,153.539007 425.631666,154.738471 424.734854,155.320627 L424.734854,155.320627 Z" id="Stroke-258"></path>
                <path d="M425.036735,155.006572 L425.303378,154.558166 C425.849524,153.638205 425.546872,152.449886 424.627768,151.90374 L410.47683,143.494627 C409.556869,142.948481 408.36855,143.251133 407.822404,144.170237 L407.555761,144.6195 C407.008757,145.538604 407.31141,146.726923 408.231371,147.273927 L422.382309,155.682182 C423.30227,156.228328 424.490589,155.926533 425.036735,155.006572 L425.036735,155.006572 Z" id="Stroke-260"></path>
                <path d="M419.478473,160.789809 L419.745116,160.341403 C420.291262,159.421442 419.98861,158.233123 419.069506,157.686976 L404.918568,149.277864 C403.998607,148.731717 402.810288,149.03437 402.264142,149.953474 L401.997499,150.402737 C401.450495,151.321841 401.753148,152.510159 402.673109,153.057163 L416.824047,161.465418 C417.744008,162.011565 418.932326,161.70977 419.478473,160.789809 L419.478473,160.789809 Z" id="Stroke-262"></path>
                <path d="M413.920211,166.573045 L414.186854,166.124639 C414.733,165.204678 414.430348,164.01636 413.511244,163.470213 L399.360306,155.061101 C398.440345,154.514954 397.252026,154.817607 396.70588,155.73671 L396.439237,156.185974 C395.892233,157.105077 396.194886,158.293396 397.114847,158.8404 L411.265785,167.248655 C412.185746,167.794802 413.374064,167.493006 413.920211,166.573045 L413.920211,166.573045 Z" id="Stroke-264"></path>
                <path d="M408.362034,172.356282 L408.628677,171.907876 C409.174824,170.987915 408.872171,169.799596 407.953068,169.25345 L393.80213,160.844337 C392.882169,160.298191 391.69385,160.600844 391.147703,161.519947 L390.88106,161.969211 C390.334057,162.888314 390.636709,164.076633 391.55667,164.623637 L405.707608,173.031892 C406.627569,173.578038 407.815888,173.276243 408.362034,172.356282 L408.362034,172.356282 Z" id="Stroke-266"></path>
                <path d="M402.803772,178.139519 L403.070415,177.691113 C403.616562,176.771152 403.313909,175.582833 402.394805,175.036687 L388.243867,166.627574 C387.323906,166.081428 386.135588,166.38408 385.589441,167.303184 L385.322798,167.752447 C384.775794,168.671551 385.078447,169.85987 385.998408,170.406873 L400.149346,178.815129 C401.069307,179.361275 402.257626,179.05948 402.803772,178.139519 L402.803772,178.139519 Z" id="Stroke-268"></path>
                <path d="M397.24551,183.922756 L397.512153,183.47435 C398.0583,182.554389 397.755647,181.36607 396.836543,180.819923 L382.685605,172.410811 C381.765644,171.864664 380.577326,172.167317 380.031179,173.086421 L379.764536,173.535684 C379.217532,174.454788 379.520185,175.643106 380.440146,176.19011 L394.591084,184.598365 C395.511045,185.144512 396.699364,184.842717 397.24551,183.922756 L397.24551,183.922756 Z" id="Stroke-270"></path>
                <path d="M391.687248,189.705992 L391.953891,189.257586 C392.500037,188.337625 392.197385,187.149307 391.278281,186.60316 L377.127343,178.194048 C376.207382,177.647901 375.019063,177.950554 374.472917,178.869657 L374.206274,179.318921 C373.65927,180.238024 373.961923,181.426343 374.881884,181.973347 L389.032822,190.381602 C389.952783,190.927748 391.141102,190.625953 391.687248,189.705992 L391.687248,189.705992 Z" id="Stroke-272"></path>
                <path d="M386.129072,195.489229 L386.395715,195.040823 C386.941861,194.120862 386.639209,192.932543 385.720105,192.386397 L371.569167,183.977284 C370.649206,183.431138 369.460887,183.733791 368.914741,184.652894 L368.648098,185.102158 C368.101094,186.021261 368.403746,187.20958 369.323707,187.756584 L383.474646,196.164839 C384.394607,196.710985 385.582925,196.40919 386.129072,195.489229 L386.129072,195.489229 Z" id="Stroke-274"></path>
                <path d="M380.57081,201.272466 L380.837453,200.82406 C381.383599,199.904099 381.080946,198.71578 380.161843,198.169634 L366.010905,189.760521 C365.090944,189.214375 363.902625,189.517027 363.356479,190.436131 L363.089836,190.885394 C362.542832,191.804498 362.845484,192.992817 363.765445,193.53982 L377.916383,201.948075 C378.836344,202.494222 380.024663,202.192427 380.57081,201.272466 L380.57081,201.272466 Z" id="Stroke-276"></path>
                <path d="M375.012633,207.055702 L375.279276,206.607296 C375.825423,205.687335 375.52277,204.499017 374.603666,203.95287 L360.452728,195.543758 C359.532767,194.997611 358.344449,195.300264 357.798302,196.219368 L357.531659,196.668631 C356.984655,197.587735 357.287308,198.776053 358.207269,199.323057 L372.358207,207.731312 C373.278168,208.277459 374.466487,207.975663 375.012633,207.055702 L375.012633,207.055702 Z" id="Stroke-278"></path>
                <path d="M369.454371,212.838939 L369.721014,212.390533 C370.26716,211.470572 369.964508,210.282254 369.045404,209.736107 L354.894466,201.326995 C353.974505,200.780848 352.786186,201.083501 352.24004,202.002604 L351.973397,202.451868 C351.426393,203.370971 351.729046,204.55929 352.649007,205.106294 L366.799945,213.514549 C367.719906,214.060695 368.908225,213.7589 369.454371,212.838939 L369.454371,212.838939 Z" id="Stroke-280"></path>
                <path d="M363.896109,218.622176 L364.162752,218.17377 C364.708898,217.253809 364.406246,216.06549 363.487142,215.519344 L349.336204,207.110231 C348.416243,206.564085 347.227924,206.866738 346.681778,207.785841 L346.415135,208.235104 C345.868131,209.154208 346.170784,210.342527 347.090745,210.889531 L361.241683,219.297786 C362.161644,219.843932 363.349962,219.542137 363.896109,218.622176 L363.896109,218.622176 Z" id="Stroke-282"></path>
                <path d="M358.337933,224.405413 L358.604576,223.957007 C359.150722,223.037046 358.848069,221.848727 357.928966,221.302581 L343.778028,212.893468 C342.858067,212.347322 341.669748,212.649974 341.123602,213.569078 L340.856959,214.018341 C340.309955,214.937445 340.612607,216.125764 341.532568,216.672767 L355.683506,225.081022 C356.603467,225.627169 357.791786,225.325374 358.337933,224.405413 L358.337933,224.405413 Z" id="Stroke-284"></path>
                <path d="M352.77967,230.188649 L353.046313,229.740243 C353.59246,228.820282 353.289807,227.631964 352.370704,227.085817 L338.219766,218.676705 C337.299805,218.130558 336.111486,218.433211 335.565339,219.352315 L335.298696,219.801578 C334.751693,220.720682 335.054345,221.909 335.974306,222.456004 L350.125244,230.864259 C351.045205,231.410406 352.233524,231.10861 352.77967,230.188649 L352.77967,230.188649 Z" id="Stroke-286"></path>
                <path d="M347.519431,235.66186 L347.081314,235.945651 C346.184502,236.528664 344.985037,236.273167 344.402881,235.376355 L335.439048,221.570081 C334.856892,220.672412 335.112389,219.472947 336.009201,218.890791 L336.447319,218.606143 C337.344131,218.023987 338.543595,218.279484 339.125751,219.176296 L348.089584,232.98257 C348.67174,233.88024 348.416243,235.079704 347.519431,235.66186 L347.519431,235.66186 Z" id="Stroke-288"></path>
                <path d="M347.821226,235.347805 L348.087869,234.899399 C348.634016,233.979438 348.331363,232.791119 347.41226,232.244972 L333.261321,223.83586 C332.34136,223.289713 331.153042,223.592366 330.606895,224.51147 L330.340252,224.960733 C329.793248,225.879837 330.095901,227.068155 331.015862,227.615159 L345.1668,236.023414 C346.086761,236.569561 347.27508,236.267766 347.821226,235.347805 L347.821226,235.347805 Z" id="Stroke-290"></path>
                <path d="M429.805271,138.193063 L330.553224,241.462759 L328.033405,239.041538 L427.285452,135.770984 L429.805271,138.193063 L429.805271,138.193063 Z" id="Stroke-292"></path>
                <path d="M346.472579,70.1429548 L271.009197,148.661156 L266.403391,144.233683 L341.865915,65.7154816 L346.472579,70.1429548 L346.472579,70.1429548 Z" id="Stroke-294"></path>
                <path d="M350.335129,69.8325858 L270.852384,152.532194 L262.541012,144.544052 L342.0229,61.8435861 L350.335129,69.8325858 L350.335129,69.8325858 Z" id="Stroke-296"></path>
                <path d="M341.713988,65.8740956 L341.870888,62.0022" id="Stroke-298"></path>
                <path d="M346.320395,70.3013115 L350.18286,69.9909426" id="Stroke-300"></path>
                <path d="M270.700457,152.690894 L270.857357,148.818998" id="Stroke-302"></path>
                <path d="M266.25095,144.391954 L262.388485,144.702323" id="Stroke-304"></path>
                <path d="M452.934531,169.468565 L373.814455,251.790929 L365.503083,243.802786 L444.622302,161.479565 L452.934531,169.468565 L452.934531,169.468565 Z" id="Stroke-306"></path>
                <path d="M449.088614,169.7617 L374.2494,247.63087 L369.642736,243.203397 L444.48195,165.334227 L449.088614,169.7617 L449.088614,169.7617 Z" id="Stroke-308"></path>
                <path d="M444.482207,165.334485 L444.622816,161.479736" id="Stroke-310"></path>
                <path d="M449.088614,169.7617 L452.934789,169.468479" id="Stroke-312"></path>
                <path d="M374.108962,251.485104 L374.249571,247.630356" id="Stroke-314"></path>
                <path d="M369.642822,243.203397 L365.796647,243.496619" id="Stroke-316"></path>
                <path d="M198.270546,325.515901 C200.401118,327.563308 200.46885,330.950788 198.420587,333.081359 C196.37318,335.212788 192.9857,335.279663 190.855129,333.232257 C188.7237,331.183993 188.656825,327.796513 190.705089,325.665942 C192.752495,323.53537 196.139975,323.468495 198.270546,325.515901 L198.270546,325.515901 Z" id="Stroke-318"></path>
                <path d="M335.436391,68.0200997 C333.668488,66.3216442 333.508159,63.6209199 335.206615,61.8530172 C336.90507,60.0859718 339.610081,60.1399863 341.377127,61.8384418 L357.511168,77.3440289 C359.278213,79.0433418 359.439399,81.7432087 357.740944,83.5111114 C356.041631,85.2781568 353.337477,85.2241423 351.569574,83.5256868 L335.436391,68.0200997 L335.436391,68.0200997 Z" id="Stroke-320"></path>
                <path d="M432.487476,161.295316 C430.719573,159.59686 430.559245,156.896136 432.2577,155.128233 C433.956156,153.361188 436.661167,153.415202 438.428212,155.113658 L454.562254,170.619245 C456.329299,172.318558 456.490485,175.018425 454.79203,176.786327 C453.092717,178.553373 450.388563,178.499358 448.62066,176.800903 L432.487476,161.295316 L432.487476,161.295316 Z" id="Stroke-322"></path>
                <path d="M453.149217,169.226871 L364.915268,261.032636 L253.461091,153.915908 L341.695898,62.1092859 L453.149217,169.226871 L453.149217,169.226871 Z" id="Stroke-324"></path>
                <path d="M301.33353,219.563143 L280.626262,241.108921 L260.473715,238.154414 L239.549531,245.80218 L236.883102,243.239492 L260.110188,234.655476 L279.367639,237.469374 L298.860867,217.186505 L301.33353,219.563143 L301.33353,219.563143 Z" id="Stroke-326"></path>
                <path d="M278.068633,190.902113 L260.619382,209.057839 L258.099564,206.635761 L275.548815,188.480035 L278.068633,190.902113 L278.068633,190.902113 Z" id="Stroke-328"></path>
                <path d="M292.51708,210.925455 L278.133794,225.890897 L275.613975,223.468819 L289.997261,208.503376 L292.51708,210.925455 L292.51708,210.925455 Z" id="Stroke-330"></path>
                <path d="M385.711188,78.9021325 L377.005425,87.9602761 L374.485606,85.538198 L383.19137,76.4800543 L385.711188,78.9021325 L385.711188,78.9021325 Z" id="Stroke-332"></path>
                <path d="M403.225685,95.7352756 L396.539892,102.691141 L394.020074,100.26992 L400.705867,93.3131974 L403.225685,95.7352756 L403.225685,95.7352756 Z" id="Stroke-334"></path>
                <path d="M420.740268,112.568419 L412.25485,121.397644 L409.735031,118.975566 L418.22045,110.146341 L420.740268,112.568419 L420.740268,112.568419 Z" id="Stroke-336"></path>
                <path d="M438.254766,129.401476 L429.829363,138.168113 L427.309545,135.746892 L435.734947,126.979398 L438.254766,129.401476 L438.254766,129.401476 Z" id="Stroke-338"></path>
                <path d="M313.097714,224.568314 L295.648462,242.72404 L293.128644,240.301962 L310.577895,222.146235 L313.097714,224.568314 L313.097714,224.568314 Z" id="Stroke-340"></path>
                <path d="M330.612211,241.401457 L313.16296,259.557183 L310.643141,257.135105 L328.092392,238.979378 L330.612211,241.401457 L330.612211,241.401457 Z" id="Stroke-342"></path>
                <path d="M359.313194,238.423201 L459.717551,133.95404 L462.190214,136.330677 L361.785857,240.799838 L359.313194,238.423201 L359.313194,238.423201 Z" id="Stroke-344"></path>
            </g>
        </g>
    </g>
</svg>