<?xml version="1.0" encoding="UTF-8" standalone="no"?>
<svg width="32px" height="32px" viewBox="0 0 32 32" version="1.1" xmlns="http://www.w3.org/2000/svg" xmlns:xlink="http://www.w3.org/1999/xlink">
    <!-- Generator: Sketch 3.6.1 (26313) - http://www.bohemiancoding.com/sketch -->
    <title>icon-search</title>
    <desc>Created with Sketch.</desc>
    <defs></defs>
    <g id="Iteration-3" stroke="none" stroke-width="1" fill="none" fill-rule="evenodd">
        <g id="icon-search" fill="#FFFFFF">
            <path d="M17.5625021,13.8437513 C17.5625021,15.8940447 15.8940447,17.5625021 13.8437513,17.5625021 C11.7934579,17.5625021 10.1250005,15.8940447 10.1250005,13.8437513 C10.1250005,11.7934579 11.7934579,10.1250005 13.8437513,10.1250005 C15.8940447,10.1250005 17.5625021,11.7934579 17.5625021,13.8437513 L17.5625021,13.8437513 Z M24.692871,23.1904293 L18.6582055,17.1557638 C19.3305689,16.1845721 19.6875026,15.0224625 19.6875026,13.8437513 C19.6875026,10.6147467 17.0727559,8 13.8437513,8 C10.6147467,8 8,10.6147467 8,13.8437513 C8,17.0727559 10.6147467,19.6875026 13.8437513,19.6875026 C15.0224625,19.6875026 16.1845721,19.3305689 17.1557638,18.6582055 L23.1904293,24.6845702 C23.3263139,24.8263629 23.5042485,24.9261055 23.6972971,24.9718267 C23.775482,24.9903438 23.856146,25 23.9374998,25 C24.5185546,25 25,24.5185546 25,23.9374998 C25,23.6552731 24.883789,23.3813473 24.692871,23.1904293 Z" id="-copy"></path>
        </g>
    </g>
</svg>