<?xml version="1.0" encoding="UTF-8" standalone="no"?>
<svg width="38px" height="38px" viewBox="0 0 38 38" version="1.1" xmlns="http://www.w3.org/2000/svg" xmlns:xlink="http://www.w3.org/1999/xlink">
    <!-- Generator: Sketch 3.6.1 (26313) - http://www.bohemiancoding.com/sketch -->
    <title>Artboard 17</title>
    <desc>Created with Sketch.</desc>
    <defs></defs>
    <g id="Iteration-3" stroke="none" stroke-width="1" fill="none" fill-rule="evenodd">
        <g id="Artboard-17" fill="#FFFFFF">
            <path d="M20.5625021,16.8437513 C20.5625021,18.8940447 18.8940447,20.5625021 16.8437513,20.5625021 C14.7934579,20.5625021 13.1250005,18.8940447 13.1250005,16.8437513 C13.1250005,14.7934579 14.7934579,13.1250005 16.8437513,13.1250005 C18.8940447,13.1250005 20.5625021,14.7934579 20.5625021,16.8437513 L20.5625021,16.8437513 Z M27.692871,26.1904293 L21.6582055,20.1557638 C22.3305689,19.1845721 22.6875026,18.0224625 22.6875026,16.8437513 C22.6875026,13.6147467 20.0727559,11 16.8437513,11 C13.6147467,11 11,13.6147467 11,16.8437513 C11,20.0727559 13.6147467,22.6875026 16.8437513,22.6875026 C18.0224625,22.6875026 19.1845721,22.3305689 20.1557638,21.6582055 L26.1904293,27.6845702 C26.3263139,27.8263629 26.5042485,27.9261055 26.6972971,27.9718267 C26.775482,27.9903438 26.856146,28 26.9374998,28 C27.5185546,28 28,27.5185546 28,26.9374998 C28,26.6552731 27.883789,26.3813473 27.692871,26.1904293 Z" id="-copy"></path>
        </g>
    </g>
</svg>